<svg xmlns="http://www.w3.org/2000/svg" xmlns:xlink="http://www.w3.org/1999/xlink" id="Capa_1" x="0px" y="0px" viewBox="0 0 368.8 257.7" style="enable-background:new 0 0 368.8 257.7;" xml:space="preserve"><g>	<path d="M320.9,52.2c-2.5-1.2-5-2.4-7.5-3.6c-3.1-1.5-6.1-3.3-9.3-4.6c-5.4-2.3-10.9-4.6-16.4-6.5c-5-1.7-10.2-3-15.4-4.4  c-3.9-1.1-7.9-2.2-11.9-3.2c-2.7-0.7-5.4-1.2-8.2-1.6c-5.2-0.7-10.4-1.3-15.6-2c-2.7-0.4-5.4-0.8-8.7-1.3c0.9,1.9,1.6,3.3,2.1,4.6  c0.7,1.8,1,3.4-1.1,4.6c-2.5,1.5-4.8,3.1-7.3,4.7c0,2.2,0.1,4.5,0,6.7c-0.1,1.6,0.4,2.6,1.9,3.4c1.9,1,3.6,2.2,5.4,3.3  c2,1.2,1.9,2.7,1,4.5c-1.3,2.7-2.6,5.5-4,8.8c-1.7-0.2-3.8-0.2-5.7-0.9c-3.8-1.3-4.8-1.2-7.4,1.8c-0.2,0.3-0.5,0.6-0.8,0.8  c-4.6,2.4-2.4,6.3-2.1,9.8c0.1,1.1,0.6,2.2,1,3.5c-3.5,1.5-6.8,2.9-10,4.4c-3.3,1.5-3.5-1.6-4.7-3.1c-1.3-1.7-2.3-3.6-3.3-5.1  c-2.7,0-5.1-0.1-7.4,0c-0.9,0.1-2.2,0.3-2.7,1c-1.6,2.1-2.8,4.5-4.4,6.7c-0.4,0.5-1.6,0.7-2.3,0.5c-3.4-1.3-6.7-2.6-9.9-4.2  c-0.4-0.2-0.6-1.4-0.5-2c0.4-2.6,1-5.3,1.6-7.9c0-0.2,0.1-0.3,0.1-0.5c-0.2-2.1-6.2-6.9-8.3-6.5c-2.2,0.4-4.4,0.8-6.5,1.3  c-1.5,0.4-2.3-0.3-2.8-1.5c-1-2.5-2-5-3-7.6c-1-2.8-0.5-3.7,3.3-5.6c1-0.5,2.2-0.9,3-1.7c0.8-0.8,1.1-2,1.6-3.1  c0.1-0.3-0.1-0.8,0-1.2c1.2-5-1.5-7.7-5.5-10c-3.5-2-3.4-2.2-1.6-6c0.4-0.9,0.6-2,0.9-3.2c-1.2,0-2.1-0.1-3,0  c-7.5,1.2-15,2.3-22.5,3.6c-5,0.9-10,1.8-14.9,3c-5.2,1.3-10.2,3-15.3,4.6c-3.5,1.1-7.1,2.1-10.6,3.4c-4.7,1.8-9.4,3.7-14,5.9  c-3.7,1.7-7.2,3.9-10.8,5.8c-0.4,0.2-0.9,0.3-1.6,0c2-2,3.7-4.3,5.9-6.1c5.3-4.4,10.5-8.7,16.1-12.7c7.3-5.3,15.3-9.5,23.4-13.5  c7.4-3.6,15-6.6,22.8-9.1c6.3-2,12.6-3.8,19.1-5.3c5.5-1.3,11.2-2.2,16.8-2.9c5.4-0.7,10.9-1.2,16.4-1.5c6.5-0.4,13.1-0.8,19.6-0.7  c6.1,0.1,12.3,0.7,18.4,1.4c5.7,0.7,11.5,1.5,17.1,2.8c7.3,1.7,14.4,3.8,21.6,6c5.4,1.7,10.7,3.7,15.9,5.8  c7.7,3.2,15.1,7.2,22.3,11.5c8.6,5.2,16.6,11.2,24,17.9c2.2,2,4.2,4.2,6.3,6.2C321.1,51.9,321,52,320.9,52.2z M188.4,62.8  c11.9,0.5,20.7-9.4,20.6-20.4c-0.1-10.8-8.2-20-20.3-20.3c-11.7-0.2-20.8,9.1-20.8,20.4C167.9,53.3,176.6,63.4,188.4,62.8z"></path>	<path d="M209.3,111.9c0-2.5,0-4.6,0-6.9c17.8,0,35.4,0,53.2,0c0,2.2,0,4.3,0,6.7c-0.9,0.1-1.8,0.2-2.7,0.3  c-3.4,0.4-6.8,0.8-10.2,1.3c-2.5,0.3-5.4,3.5-5.4,6.5c0.1,27.8,0.1,55.5,0,83.3c0,3.2,1.8,5.6,5.2,6.2c3.6,0.6,7.2,1.1,10.9,1.3  c1.8,0.1,2.4,0.7,2.3,2.4c-0.1,1.7,0,3.3,0,5.1c-33.8,0-67.4,0-101.3,0c0-1.8-0.1-3.7,0.1-5.5c0-0.4,0.8-1,1.3-1.2  c3.2-0.8,6.5-1.4,9.7-2.2c3-0.8,4.2-3.1,4-6.2c-0.2-4.5-2.6-8.2-3.8-12.3c-1.1-3.6-2.4-7.1-3.4-10.8c-0.6-2.1-1.4-3.1-3.8-3.1  c-11.4,0.1-22.9,0.1-34.3,0c-1.9,0-2.4,1-3,2.4c-2.1,5.7-4.4,11.3-6.5,17.1c-0.8,2.2-1.3,4.6-1.6,6.9c-0.5,3,1.1,4.6,3.8,5.7  c2.6,1.1,5.4,1.8,8.2,2.7c0,2.1,0,4.2,0,6.5c-0.8,0.1-1.5,0.1-2.2,0.1c-11,0-22.1-0.1-33.1,0c-2.2,0-2.7-0.8-3-2.9  c-0.7-4.5,2.9-4.9,5.5-5.9c5.6-2.1,8.8-6.5,11.2-11.5c2.5-5.1,4.5-10.5,6.6-15.8c2-5,3.8-10.1,5.8-15.1c1.4-3.5,3.1-7,4.5-10.5  c1.2-3,2.2-6,3.4-9c2-5.1,4.2-10.2,6.2-15.4c1.9-4.9,3.8-9.8,5.7-14.7c1.8-4.5,3.6-9,5.4-13.4c0.2-0.5,1.1-0.8,1.7-0.9  c2.6-0.1,5.3,0,7.9,0c1.3,0,1.9,0.6,2.3,1.8c2.1,5.9,4.3,11.7,6.4,17.6c2,5.5,3.8,11.1,5.8,16.7c1.5,4.1,3.2,8.1,4.7,12.2  c1.5,4,2.8,8,4.3,11.9c2.1,5.7,4.2,11.4,6.2,17.2c1.2,3.5,2.1,7.1,3.6,10.5c2.1,4.7,2.8,10.2,6.5,14.1c1.3,1.4,3,2.8,4.8,3.5  c5.4,2,10.9,2.5,16.6,0.9c1-0.3,2-0.3,3.1-0.5c2.8-0.4,5.1-2.7,5.1-6c-0.2-9.4-0.1-18.9-0.1-28.3c0-18.2-0.1-36.5,0.1-54.7  c0-4.1-2.2-6.8-6.3-7.2c-1.9-0.1-3.7-0.7-5.6-0.9C213.2,112,211.3,112,209.3,111.9z M148.7,125.6c-0.7,1.8-1.4,3.6-2.1,5.3  c-1.5,3.9-3,7.9-4.5,11.8c-1.6,4.1-3.2,8.1-4.7,12.2c-1.3,3.4-2.5,6.9-3.9,10.3c-1,2.5-0.6,3.4,2.1,3.4c8.9,0,17.7,0,26.6,0  c0.9,0,1.9-0.5,3-0.8c-0.5-0.7-0.8-1.1-1-1.5c-2.3-6.6-4.6-13.2-6.8-19.8c-2-5.9-3.8-11.9-6-17.8  C151,127.6,151.3,124.9,148.7,125.6z"></path>	<path d="M96.8,185.2c1.7,0.9,3.8,2,6.1,3.3c-1.1,2.4-2.1,4.9-3.4,7.3c-3.4,6-8.2,11-13.4,15.4c-2.9,2.5-6.6,4.1-10.1,5.8  c-4.6,2.3-9.7,2.6-14.6,3.5c-6.6,1.3-12.9-0.1-19.2-1c-6.9-1-13.3-4.2-19-8.1c-6.5-4.5-11.7-10.4-15.4-17.5  C4,186.6,1,179.1,0.7,170.7c-0.1-3.6-1-7.3-0.7-10.9c0.6-7.1,2-14.1,4.8-20.8c3-7.4,7.3-13.9,12.7-19.6c4-4.2,8.8-7.6,14.1-10.4  c5.5-3,11.3-4.8,17.3-6c5.1-0.9,10.2-1.7,15.6-0.6c5.4,1.1,10.8,2.1,15.9,4.3c1.3,0.5,2.4,1.4,3.6,2c1.6,0.8,3.1,1.3,4-1.1  c0.4-1.1,1.2-2,1.8-2.9c1.3-1.8,5.5-2.9,7.5-1.9c0.4,0.2,0.8,1,0.8,1.5c0,11.8,0.1,23.7,0,35.5c0,0.6-1,1.5-1.6,1.7  c-1.3,0.3-2.7,0.1-3.7,0.1c-2.6-4.9-5-9.6-7.6-14.2c-2.7-4.7-6.4-8.5-10.8-11.6c-6.3-4.5-13.5-5.6-21-4.8c-6,0.7-11.5,3-16.2,6.9  c-5.7,4.7-9.7,10.6-12.5,17.5c-2,5-3.5,10-3.8,15.3c-0.4,6.3-1.1,12.6-0.6,18.8c0.5,5.6,1.2,11.4,4.4,16.5c1.7,2.8,2.8,6,4.7,8.6  c4.1,5.3,9,9.6,15.3,12.3c8.3,3.6,16.8,3.7,25.3,2.2c7.2-1.2,13.4-4.9,17.8-10.8C91,194.1,93.7,189.8,96.8,185.2z"></path>	<path d="M363.9,102.5c0,13.1,0,25.9,0,38.9c-1.4,0-2.7,0.2-3.9-0.1c-0.9-0.2-2-1-2.4-1.8c-3-5.4-5.3-11.3-8.9-16.1  c-4.4-5.9-10.1-10.9-18-11.8c-3.9-0.5-8-1.2-11.8-0.7c-7,1-13.1,4-18.2,9.3c-3.1,3.2-5.8,6.5-7.8,10.4c-1.4,2.8-2.4,5.7-3.6,8.6  c-2.7,6.7-3.2,13.8-3.4,20.8c-0.1,6.6-0.1,13.5,2.6,19.9c1.6,3.8,2.9,7.7,4.8,11.4c2.4,4.6,6.2,8.2,10.3,11.4  c9.7,7.5,20.9,8.3,32.3,6.4c7.1-1.2,13.2-4.8,17.9-10.9c2.9-3.7,5.7-7.4,7.7-11.7c0.7-1.5,1.9-1.1,3-0.5c1.3,0.8,2.4,1.7,4.2,2.9  c-1.3,2.6-2.6,5.4-4,8.1c-3.5,6.4-8.7,11.4-14.5,15.6c-3.8,2.8-8,5-12.7,6.2c-6,1.6-12.1,2.8-18.3,2.3c-7.9-0.7-15.7-2-23-5.7  c-7.4-3.8-13.6-8.7-18.5-15.3c-3.9-5.2-6.7-11-8.6-17.3c-2.6-8.4-3.2-17-2.5-25.7c0.5-6.4,1.9-12.5,4.5-18.5  c2.6-6.1,5.9-11.7,10.2-16.6c4.7-5.3,10.1-9.7,16.4-13c5-2.6,10.2-4.7,15.9-5.4c4.5-0.5,9-1.8,13.4-1.5c8,0.6,15.9,2.1,22.9,6.6  c1.4,0.9,2.9,1.7,3.9-0.9c0.7-1.7,2.3-3.1,3.5-4.6c0.3-0.3,0.8-0.5,1.2-0.5C360.3,102.5,362,102.5,363.9,102.5z"></path></g><g>	<path d="M108.7,231.7c0.1,0.1,0.2,0.6,0.4,1.3c0.1,0.3,0.1,0.7,0.1,1h-0.7c-0.5-0.7-1-1.2-1.5-1.5c-0.5-0.3-1.1-0.4-1.7-0.4  c-0.8,0-1.4,0.3-1.9,0.9c-0.6,0.8-1,2-1,3.4c0,0.8,0.1,1.4,0.2,1.8c0.2,0.6,0.4,1.1,0.7,1.4c0.2,0.3,0.5,0.5,0.8,0.7  c0.4,0.2,0.9,0.3,1.4,0.3c0.5,0,1.1-0.2,1.6-0.5c0.5-0.3,1-0.8,1.5-1.5c0.2,0,0.4-0.1,0.7-0.1c0,0.2-0.1,0.4-0.1,0.6  c0,0.1-0.1,0.4-0.2,0.9l-0.1,0.2l-0.1,0.3c-0.3,0.2-0.7,0.4-1.3,0.5c-0.5,0.1-1.2,0.2-2,0.2c-0.6,0-1.2-0.1-1.7-0.2  c-0.5-0.1-1-0.3-1.4-0.5c-0.6-0.4-1-0.7-1.3-1.2c-0.3-0.4-0.6-0.9-0.7-1.4c-0.2-0.5-0.2-1-0.2-1.7c0-1.5,0.5-2.7,1.5-3.7  c1-1,2.2-1.4,3.7-1.4c0.6,0,1.2,0,1.7,0.1C107.7,231.5,108.2,231.6,108.7,231.7z"></path>	<path d="M110.1,241.2l0-0.5c0.1,0,0.3-0.1,0.5-0.1c0.4-0.1,0.6-0.1,0.7-0.2c0.1-0.1,0.2-0.2,0.3-0.4l1.5-3.9l1.8-4.6  c0.2,0,0.3,0,0.5,0h0.3l0.1,0.1l1.3,3.1c0.3,0.7,0.6,1.3,0.8,1.9c0.2,0.6,0.4,1.1,0.6,1.5c0.1,0.2,0.2,0.6,0.4,1.1  c0.1,0.3,0.2,0.6,0.4,1c0.1,0.2,0.2,0.3,0.2,0.4c0.1,0.1,0.2,0.1,0.4,0.1c0.2,0,0.4,0.1,0.7,0.2c0,0.2,0,0.3,0,0.4c0,0,0,0.1,0,0.2  c-0.4,0-0.8,0-1.2-0.1c-0.4,0-0.8-0.1-1.2-0.1c-0.4,0-0.7,0-0.9,0l-1.3,0.1l-0.4,0c0-0.2,0-0.3,0-0.5l0.8-0.2  c0.2-0.1,0.4-0.1,0.4-0.1c0,0,0.1-0.1,0.1-0.2c0-0.1,0-0.1,0-0.2l-0.3-0.7l-0.6-1.5l-2.8,0c-0.1,0.2-0.3,0.8-0.7,1.8  c-0.1,0.3-0.1,0.4-0.1,0.5c0,0.1,0,0.2,0.1,0.3c0.1,0.1,0.3,0.2,0.7,0.2c0,0,0.2,0,0.5,0.1c0,0.2,0,0.3,0,0.4c0,0.1,0,0.1,0,0.2  c-0.3,0-1,0-2.2-0.1l-0.3,0.1c-0.4,0.1-0.7,0.1-1.1,0.1H110.1z M113.6,237c1.2,0,1.8,0,2.1,0l0.2,0c-0.1-0.4-0.3-1-0.6-1.5  c-0.2-0.6-0.4-1-0.6-1.3L113.6,237z M114.5,230.8c0.2-0.5,0.4-1.3,0.8-2.4l2,0l-2.2,2.4c-0.2,0-0.3,0-0.3,0  C114.6,230.9,114.6,230.9,114.5,230.8z"></path>	<path d="M121,241.2l0-0.5c0.6-0.1,1-0.2,1.2-0.4c0.1-0.1,0.2-0.4,0.3-0.9l0.1-2.7l0.1-2.7c0-0.2,0-0.3,0-0.3c0-0.7,0-1.1-0.1-1.2  c-0.1-0.1-0.4-0.2-1-0.3c-0.1,0-0.2-0.1-0.3-0.1c0-0.1,0-0.2,0-0.3v-0.2c0.2,0,0.4,0,0.6,0l2.2,0.1c0,0,0.1,0,0.2,0l0.3,0  c0.1,0.1,0.2,0.2,0.3,0.4c0.2,0.4,0.4,0.9,0.7,1.6l0.1,0.2l1.2,2.5c0,0.1,0.1,0.1,0.1,0.3c0.1,0.2,0.2,0.3,0.2,0.5  c0.1,0.2,0.2,0.3,0.3,0.5c0.1,0.2,0.2,0.4,0.2,0.5c0.1-0.1,0.1-0.3,0.2-0.4c0.2-0.5,0.4-0.9,0.6-1.3c0.3-0.7,0.8-1.7,1.3-3.1  c0.1-0.2,0.2-0.6,0.4-1c0.2-0.5,0.3-0.7,0.3-0.7c0,0,0.1-0.1,0.3-0.1c0,0,0.1,0,0.2,0c0.3,0,0.6,0,0.9,0c0.5,0,0.9,0,1.3,0  c0.3,0,0.5,0,0.5,0c0,0,0.1,0,0.2,0c0,0.1,0,0.1,0,0.2l0,0.2c0,0,0,0.1,0,0.2c-0.5,0.1-0.8,0.2-1.1,0.3c-0.2,0.1-0.3,0.2-0.3,0.4  v0.1l0.1,2.3c0,0.2,0.1,1.2,0.1,3.1c0,0.4,0,0.9,0.1,1.6c0,0.1,0,0.1,0,0.2c0,0.1,0,0.2,0.1,0.2c0,0,0.5,0.2,1.3,0.4  c0,0.1,0,0.1,0,0.2c0,0.1,0,0.2,0,0.3c-0.1,0-0.5,0-1-0.1c-0.5-0.1-1-0.1-1.5-0.1c-0.7,0-1.4,0-2.1,0.1c-0.1,0-0.2,0-0.3,0l0-0.5  c0.2-0.1,0.5-0.1,0.8-0.2c0.2,0,0.4-0.1,0.5-0.2c0.1-0.1,0.1-0.4,0.1-0.8c0-0.2,0-0.3,0-0.4c0-0.5,0-1.2,0-2.2l-0.1-2.6  c0-0.4,0-0.6-0.1-0.8l-1.9,4.3c0,0.1-0.1,0.2-0.2,0.4c-0.1,0.2-0.2,0.4-0.2,0.5c-0.4,0.9-0.6,1.6-0.8,2.1c0,0.1-0.1,0.3-0.2,0.5  l-0.6,0l-0.4-1.1c-0.1-0.3-0.3-0.8-0.6-1.4c-0.2-0.4-0.3-0.6-0.4-0.9c0-0.1-0.1-0.2-0.1-0.2l-0.1-0.2c0,0,0-0.1,0-0.1L124,235  l-0.7-1.5l-0.1,3.5l-0.1,2.3c0,0.4,0.1,0.6,0.2,0.8c0.1,0.2,0.4,0.3,0.9,0.4l0.4,0.1v0.5c-0.3,0-0.6,0-0.9-0.1  c-0.3,0-0.8-0.1-1.3-0.1C122.3,241.1,121.8,241.1,121,241.2z"></path>	<path d="M134.9,241.2l0-0.5c0.1,0,0.3-0.1,0.5-0.1c0.4-0.1,0.6-0.1,0.7-0.2c0.1-0.1,0.2-0.2,0.3-0.4l1.5-3.9l1.8-4.6  c0.2,0,0.3,0,0.5,0h0.3l0.1,0.1l1.3,3.1c0.3,0.7,0.6,1.3,0.8,1.9c0.2,0.6,0.4,1.1,0.6,1.5c0.1,0.2,0.2,0.6,0.4,1.1  c0.1,0.3,0.2,0.6,0.4,1c0.1,0.2,0.2,0.3,0.2,0.4c0.1,0.1,0.2,0.1,0.4,0.1c0.2,0,0.4,0.1,0.7,0.2c0,0.2,0,0.3,0,0.4c0,0,0,0.1,0,0.2  c-0.4,0-0.8,0-1.2-0.1c-0.4,0-0.8-0.1-1.2-0.1c-0.4,0-0.7,0-0.9,0l-1.3,0.1l-0.4,0c0-0.2,0-0.3,0-0.5l0.8-0.2  c0.2-0.1,0.4-0.1,0.4-0.1c0,0,0.1-0.1,0.1-0.2c0-0.1,0-0.1,0-0.2l-0.3-0.7l-0.6-1.5l-2.8,0c-0.1,0.2-0.3,0.8-0.7,1.8  c-0.1,0.3-0.1,0.4-0.1,0.5c0,0.1,0,0.2,0.1,0.3c0.1,0.1,0.3,0.2,0.7,0.2c0,0,0.2,0,0.5,0.1c0,0.2,0,0.3,0,0.4c0,0.1,0,0.1,0,0.2  c-0.3,0-1,0-2.2-0.1l-0.3,0.1c-0.4,0.1-0.7,0.1-1.1,0.1H134.9z M138.4,237c1.2,0,1.8,0,2.1,0l0.2,0c-0.1-0.4-0.3-1-0.6-1.5  c-0.2-0.6-0.4-1-0.6-1.3L138.4,237z"></path>	<path d="M146.1,240.7c0.1-0.1,0.3-0.1,0.6-0.2c0.3,0,0.5-0.1,0.7-0.2c0-0.1,0-0.2,0-0.2c0-0.1,0-0.3,0-0.7l0-1.7l0-0.9l0-0.7l0-0.4  c0-0.5,0-1,0-1.5c0-1,0-1.7,0-2l-0.4-0.1c-0.4,0-0.7,0-0.8-0.1l0-0.4l0-0.1c0.2,0,0.5-0.1,0.7-0.1c0.1,0,0.3,0,0.7,0  c0.4,0,0.6,0,0.6,0l0.4,0l0.9,0c0.6-0.1,1.2-0.1,1.8-0.1c1,0,1.8,0.3,2.4,0.8c0.6,0.5,0.9,1.1,0.9,1.8c0,0.5-0.2,1-0.5,1.4  c-0.3,0.4-0.8,0.7-1.5,0.9c0.1,0.1,0.1,0.2,0.2,0.4c0.2,0.3,0.4,0.6,0.5,0.8l1.2,1.9c0.3,0.5,0.5,0.8,0.6,0.9  c0.1,0.1,0.3,0.2,0.6,0.3c0.2,0.1,0.4,0.2,0.5,0.3c0,0.1,0,0.2,0,0.2c0,0,0,0.1,0,0.2h-0.2l-0.1,0l-0.4-0.1h-0.3  c-0.2,0-0.4,0-0.6,0l-0.7,0c-0.1,0-0.2,0-0.5,0.1c-0.1,0-0.2,0-0.3,0l-0.3-0.5c-0.2-0.4-0.4-0.7-0.4-0.8c-0.2-0.5-0.6-1.3-1.1-2.3  c-0.2-0.5-0.4-0.8-0.5-0.8c-0.1-0.1-0.4-0.2-0.8-0.2c-0.1,0-0.3,0-0.5,0c0,0.1,0,0.3,0,0.5l0,1.7l0,1.4c0.1,0.1,0.3,0.1,0.5,0.2  c0.4,0.1,0.7,0.2,1,0.3c0,0.2,0,0.4,0,0.6c-0.1,0-0.2,0-0.2,0l-0.3,0c-1.1-0.1-1.7-0.1-1.9-0.1c-0.1,0-0.2,0-0.3,0l-1,0.1  c-0.3,0-0.6,0.1-0.9,0.1h-0.3c0-0.1,0-0.2,0-0.2C146.1,240.9,146.1,240.8,146.1,240.7z M149.5,235.9c0.2,0,0.4,0,0.5,0  c0.8,0,1.4-0.2,1.8-0.5c0.4-0.3,0.5-0.7,0.5-1.2c0-0.3,0-0.6-0.1-0.9c-0.1-0.3-0.2-0.5-0.3-0.6c-0.2-0.2-0.4-0.3-0.7-0.4  c-0.2-0.1-0.6-0.1-1-0.1c-0.2,0-0.4,0-0.6,0l0,0.1l0,1l0,0.6l0,0.8c0,0.2,0,0.5,0,0.9V235.9z"></path>	<path d="M156.3,241.2l0-0.5c0.1,0,0.3-0.1,0.5-0.1c0.4-0.1,0.6-0.1,0.7-0.2c0.1-0.1,0.2-0.2,0.3-0.4l1.5-3.9l1.8-4.6  c0.2,0,0.3,0,0.5,0h0.3l0.1,0.1l1.3,3.1c0.3,0.7,0.6,1.3,0.8,1.9c0.2,0.6,0.4,1.1,0.6,1.5c0.1,0.2,0.2,0.6,0.4,1.1  c0.1,0.3,0.2,0.6,0.4,1c0.1,0.2,0.2,0.3,0.2,0.4c0.1,0.1,0.2,0.1,0.4,0.1c0.2,0,0.4,0.1,0.7,0.2c0,0.2,0,0.3,0,0.4c0,0,0,0.1,0,0.2  c-0.4,0-0.8,0-1.2-0.1c-0.4,0-0.8-0.1-1.2-0.1c-0.4,0-0.7,0-0.9,0l-1.3,0.1l-0.4,0c0-0.2,0-0.3,0-0.5l0.8-0.2  c0.2-0.1,0.4-0.1,0.4-0.1c0,0,0.1-0.1,0.1-0.2c0-0.1,0-0.1,0-0.2l-0.3-0.7l-0.6-1.5l-2.8,0c-0.1,0.2-0.3,0.8-0.7,1.8  c-0.1,0.3-0.1,0.4-0.1,0.5c0,0.1,0,0.2,0.1,0.3c0.1,0.1,0.3,0.2,0.7,0.2c0,0,0.2,0,0.5,0.1c0,0.2,0,0.3,0,0.4c0,0.1,0,0.1,0,0.2  c-0.3,0-1,0-2.2-0.1l-0.3,0.1c-0.4,0.1-0.7,0.1-1.1,0.1H156.3z M159.8,237c1.2,0,1.8,0,2.1,0l0.2,0c-0.1-0.4-0.3-1-0.6-1.5  c-0.2-0.6-0.4-1-0.6-1.3L159.8,237z"></path>	<path d="M170.9,241.2l0-0.5c0.1,0,0.3-0.1,0.5-0.1c0.4-0.1,0.6-0.1,0.7-0.2c0.1-0.1,0.2-0.2,0.3-0.4l1.5-3.9l1.8-4.6  c0.2,0,0.3,0,0.5,0h0.3l0.1,0.1l1.3,3.1c0.3,0.7,0.6,1.3,0.8,1.9c0.2,0.6,0.4,1.1,0.6,1.5c0.1,0.2,0.2,0.6,0.4,1.1  c0.1,0.3,0.2,0.6,0.4,1c0.1,0.2,0.2,0.3,0.2,0.4c0.1,0.1,0.2,0.1,0.4,0.1c0.2,0,0.4,0.1,0.7,0.2c0,0.2,0,0.3,0,0.4c0,0,0,0.1,0,0.2  c-0.4,0-0.8,0-1.2-0.1c-0.4,0-0.8-0.1-1.2-0.1c-0.4,0-0.7,0-0.9,0l-1.3,0.1l-0.4,0c0-0.2,0-0.3,0-0.5l0.8-0.2  c0.2-0.1,0.4-0.1,0.4-0.1c0,0,0.1-0.1,0.1-0.2c0-0.1,0-0.1,0-0.2l-0.3-0.7l-0.6-1.5l-2.8,0c-0.1,0.2-0.3,0.8-0.7,1.8  c-0.1,0.3-0.1,0.4-0.1,0.5c0,0.1,0,0.2,0.1,0.3c0.1,0.1,0.3,0.2,0.7,0.2c0,0,0.2,0,0.5,0.1c0,0.2,0,0.3,0,0.4c0,0.1,0,0.1,0,0.2  c-0.3,0-1,0-2.2-0.1l-0.3,0.1c-0.4,0.1-0.7,0.1-1.1,0.1H170.9z M174.4,237c1.2,0,1.8,0,2.1,0l0.2,0c-0.1-0.4-0.3-1-0.6-1.5  c-0.2-0.6-0.4-1-0.6-1.3L174.4,237z"></path>	<path d="M182.2,240.7c0.1-0.1,0.3-0.1,0.6-0.2c0.3,0,0.5-0.1,0.7-0.2c0-0.1,0-0.2,0-0.2c0-0.1,0-0.3,0-0.7l0-1.7l0-0.9l0-0.7l0-0.4  c0-0.5,0-1,0-1.5c0-1,0-1.7,0-2l-0.4-0.1c-0.4,0-0.7,0-0.8-0.1l0-0.4l0-0.1c0.2,0,0.5-0.1,0.7-0.1c0.1,0,0.3,0,0.7,0  c0.4,0,0.6,0,0.6,0l0.4,0l0.9,0c0.6-0.1,1.2-0.1,1.8-0.1c1,0,1.8,0.3,2.4,0.8c0.6,0.5,0.9,1.1,0.9,1.8c0,0.5-0.2,1-0.5,1.4  c-0.3,0.4-0.8,0.7-1.5,0.9c0.1,0.1,0.1,0.2,0.2,0.4c0.2,0.3,0.4,0.6,0.5,0.8l1.2,1.9c0.3,0.5,0.5,0.8,0.6,0.9  c0.1,0.1,0.3,0.2,0.6,0.3c0.2,0.1,0.4,0.2,0.5,0.3c0,0.1,0,0.2,0,0.2c0,0,0,0.1,0,0.2h-0.2l-0.2,0l-0.4-0.1h-0.3  c-0.2,0-0.4,0-0.6,0l-0.7,0c-0.1,0-0.2,0-0.5,0.1c-0.1,0-0.2,0-0.3,0l-0.3-0.5c-0.2-0.4-0.4-0.7-0.4-0.8c-0.2-0.5-0.6-1.3-1.1-2.3  c-0.3-0.5-0.4-0.8-0.5-0.8c-0.1-0.1-0.4-0.2-0.8-0.2c-0.1,0-0.3,0-0.5,0c0,0.1,0,0.3,0,0.5l0,1.7l0,1.4c0.1,0.1,0.3,0.1,0.5,0.2  c0.4,0.1,0.7,0.2,1,0.3c0,0.2,0,0.4,0,0.6c-0.1,0-0.2,0-0.2,0l-0.3,0c-1.1-0.1-1.7-0.1-1.9-0.1c-0.1,0-0.2,0-0.3,0l-1,0.1  c-0.3,0-0.6,0.1-0.9,0.1h-0.3c0-0.1,0-0.2,0-0.2C182.1,240.9,182.1,240.8,182.2,240.7z M185.5,235.9c0.2,0,0.4,0,0.5,0  c0.8,0,1.4-0.2,1.8-0.5c0.4-0.3,0.5-0.7,0.5-1.2c0-0.3,0-0.6-0.1-0.9c-0.1-0.3-0.2-0.5-0.3-0.6c-0.2-0.2-0.4-0.3-0.7-0.4  c-0.2-0.1-0.6-0.1-1-0.1c-0.2,0-0.4,0-0.6,0l0,0.1l0,1l0,0.6l0,0.8c0,0.2,0,0.5,0,0.9V235.9z"></path>	<path d="M201.9,232.2c0,0.1,0.1,0.4,0.1,0.9c0,0.4,0.1,0.7,0.1,0.9c0,0.1,0,0.2-0.1,0.3c-0.2,0-0.4,0-0.5-0.1  c-0.4-0.6-0.6-0.9-0.8-1.1c-0.3-0.3-0.7-0.5-1.1-0.7c-0.3-0.1-0.7-0.2-1.1-0.2c-0.8,0-1.6,0.4-2.2,1.1c-0.6,0.7-0.9,1.9-0.9,3.3  c0,0.7,0.1,1.4,0.4,2c0.2,0.7,0.6,1.2,1.1,1.5c0.5,0.4,1.1,0.6,1.7,0.6c0.3,0,0.7,0,1-0.1c0.2,0,0.3-0.1,0.4-0.2  c0.1-0.1,0.1-0.2,0.2-0.4c0-0.3,0.1-0.7,0.1-1.2c0-0.5,0-0.9,0-1.1c0-0.1-0.1-0.1-0.1-0.1c0,0-0.1-0.1-0.3-0.1l-0.7-0.2  c-0.1,0-0.2-0.1-0.3-0.1c0-0.1,0-0.1,0-0.1c0-0.1,0-0.2,0.1-0.3c0.1,0,0.2,0,0.2,0c0.5,0,1,0,1.4,0.1c0.1,0,0.3,0,0.5,0l1.2,0  l0.5,0c0.1,0,0.2,0,0.5,0c0,0.1,0,0.2,0,0.3c0,0.1,0,0.1-0.1,0.2c-0.1,0.1-0.2,0.1-0.4,0.2c-0.2,0.1-0.3,0.1-0.3,0.2  c0,0-0.1,0.1-0.1,0.2c0,0.1,0,0.4,0,0.9c0,0.6,0,0.9,0,1.1c0,0.4,0,0.6,0,0.6c0,0.2,0,0.3-0.1,0.3c-0.1,0.1-0.6,0.3-1.3,0.5  c-0.7,0.2-1.6,0.3-2.5,0.3c-0.7,0-1.3-0.1-1.8-0.2c-0.5-0.1-0.9-0.3-1.3-0.5c-0.5-0.3-0.9-0.6-1.2-1c-0.3-0.4-0.6-0.8-0.7-1.3  c-0.2-0.7-0.3-1.3-0.3-2c0-0.7,0.2-1.5,0.5-2.2c0.2-0.5,0.6-1,1-1.5c0.5-0.4,1-0.8,1.7-1c0.7-0.3,1.4-0.4,2.2-0.4  c0.1,0,0.3,0,0.5,0c0.6,0,1.2,0.1,1.7,0.2C201.1,231.8,201.6,232,201.9,232.2z"></path>	<path d="M204.1,231.5c0.3,0,0.5,0,0.7,0.1c0.4,0.1,0.8,0.1,1.4,0.1c0.2,0,0.6,0,1.4,0c1.1,0,2.1-0.1,3-0.1l1.4,0  c0.3,0,0.8,0,1.3,0.1c0.1,0.1,0.1,0.2,0.1,0.4v1.5l0,0.3c0,0,0,0.1,0,0.1l-0.3,0c0,0-0.1,0-0.3,0c0-0.1-0.1-0.2-0.2-0.4l-0.3-0.5  c-0.1-0.2-0.3-0.5-0.5-0.7c-0.1,0-0.3-0.1-0.5-0.1c0,0-0.2,0-0.5,0c-0.5,0-1-0.1-1.5-0.1c-0.6,0-1.1,0-1.6,0c0,0.1,0,0.6,0,1.5  l0,1.3v0.9c0.1,0,0.2,0,0.3,0c0.9,0,1.5,0,1.9-0.1c0.4,0,0.6-0.1,0.7-0.1c0.1-0.1,0.2-0.2,0.2-0.3c0-0.1,0.1-0.5,0.3-1.1l0.1,0  l0.4,0c0,0.4,0,0.8,0,1c0,0.5,0,0.9,0,1c0,0.1,0,0.3,0,0.4c0,0.1,0,0.3,0,0.6c0,0.3,0,0.5,0,0.7v0.2h-0.5c0-0.1-0.1-0.2-0.1-0.5  c-0.1-0.5-0.2-0.8-0.3-0.9c-0.1-0.1-0.2-0.2-0.3-0.2c-0.1,0-0.5-0.1-1.1-0.1c-0.8,0-1.3,0-1.7,0.1c0,0.1,0,0.2,0,0.3  c0,0.6,0,1.1,0,1.5l0,1.6c0,0.2,0.1,0.3,0.2,0.4c0.2,0.1,0.8,0.2,1.9,0.2c0.7,0,1.3-0.1,1.8-0.2c0.3-0.1,0.6-0.2,0.9-0.5  c0.3-0.3,0.6-0.8,0.8-1.4c0.2,0,0.3,0,0.4,0c0.1,0,0.1,0,0.2,0c0,0.1,0,0.2,0,0.3l0,0.2l-0.3,1.4l-0.1,0.9c-0.3,0-0.6,0-0.8,0  c-0.3,0-1,0-2.2-0.1c-0.9,0-1.9-0.1-3.1-0.1c-0.6,0-1.3,0-2.2,0.1H205l-0.9,0v-0.5c0.1,0,0.3-0.1,0.6-0.1c0.5-0.1,0.9-0.1,1.1-0.2  c0.1-0.1,0.1-0.3,0.1-0.5c0-0.1,0-0.2,0-0.4l0-0.2l0-2.8l0-0.8l0-1.2l0-0.8l-0.1-0.9c0,0,0-0.1,0-0.1c0-0.1-0.1-0.1-0.2-0.1  c-0.1,0-0.1,0-0.2,0c-0.3-0.1-0.6-0.1-0.8-0.1c-0.1,0-0.2,0-0.3,0L204.1,231.5z"></path>	<path d="M215.1,232.1l0-0.5h0.6l0.2,0c0.3,0,0.5,0,0.6,0c0.1,0,0.2,0,0.5,0c0.1,0,0.1,0,0.2,0c0,0,0.2,0,0.5,0c0.3,0,0.4,0,0.5,0  c0.1,0,0.1,0,0.2,0c0.8,0.7,1.4,1.3,1.9,1.8c0.5,0.5,2.2,2.3,5.3,5.3v-0.2l0-0.9c0-0.5,0-0.9-0.1-1.2c0-0.3,0-0.6,0-1.1  c0-0.4,0-0.8-0.1-1.1c-0.1-0.7-0.1-1-0.1-1.1c0-0.3,0-0.5-0.1-0.6c-0.1-0.1-0.3-0.2-0.7-0.2c-0.3,0-0.5-0.1-0.6-0.2l0-0.4l0.2,0  l1.5,0l1.6,0c0.1,0,0.2,0,0.3,0l0,0.5c-0.1,0.1-0.2,0.1-0.4,0.1c-0.3,0.1-0.5,0.1-0.6,0.2c-0.3,0.1-0.4,0.2-0.4,0.3  c0,0.1-0.1,0.2-0.1,0.3c0,0,0,0.1,0,0.3c0,0.1,0,0.3,0,0.6c0,0.7,0,1.3,0.1,1.7c0,0.1,0,0.3,0,0.5l0.1,2.6c0,0.2,0,0.3,0,0.4v0.9  l0,0.4l0,0.4c0,0.2,0,0.3,0,0.4v0.4l-0.9,0l-0.9-0.9l-1.8-1.8l-1.3-1.3l-0.9-1c-0.6-0.6-1.2-1.1-1.7-1.6l-1.2-1.1l0.1,2.8  c0,0.2,0,0.3,0,0.5l0,0.5l0,1c0,0.4,0,0.9,0.1,1.3c0,0.1,0,0.2,0,0.3c0,0.1,0,0.1,0.1,0.2c0.2,0.1,0.6,0.1,1.3,0.2  c0,0,0.1,0,0.2,0.1l0,0.6l-0.3,0c-0.2,0-0.7,0-1.5-0.1c-0.8,0-1.3,0-1.6,0c-0.3,0-0.4,0-0.4,0c-0.1,0-0.1,0-0.2,0  c0-0.1,0-0.2,0-0.3c0-0.1,0-0.1,0-0.3c0.1,0,0.3,0,0.3,0c0,0,0.1,0,0.3,0c0.4,0,0.7,0,0.7-0.1c0.1-0.1,0.1-0.2,0.1-0.5  c0-0.8,0.1-1.3,0.1-1.4v-0.4l0-2.4l0-1.5c0-0.6,0-1-0.1-1.2c0-0.1-0.1-0.2-0.2-0.3c-0.2-0.2-0.4-0.3-0.6-0.4  C216,232.3,215.6,232.2,215.1,232.1z"></path>	<path d="M229.1,231.1h0.5c0,0.1,0.1,0.1,0.1,0.1c0.1,0.2,0.2,0.4,0.3,0.5c0.1,0,0.4,0,1,0c0.4,0,0.7,0,1,0l0.1,0l0.9,0l1.7,0h2.3  l0.4-0.1c0.1,0,0.1-0.2,0.2-0.4c0,0,0-0.1,0.1-0.2l0.3,0c0,0,0.1,0,0.2,0c0,0.3,0,0.9,0,1.6l0,0.7l0,0.4c0,0.1,0,0.2,0,0.3  c-0.2,0.1-0.4,0.1-0.5,0.1c-0.1-0.2-0.3-0.5-0.4-0.8c-0.2-0.4-0.2-0.6-0.3-0.6c-0.1-0.1-0.1-0.1-0.2-0.1c-0.1,0-0.6,0-1.6,0  c-0.1,0-0.3,0-0.5,0c0,0.2,0,0.4,0,0.5l0,1v2.2l0,2.4l0,1c0,0.3,0,0.6,0.1,0.8c0.1,0,0.2,0.1,0.4,0.1c0,0,0.2,0,0.6,0.1  c0.1,0,0.3,0.1,0.4,0.1c0,0.2,0,0.3,0,0.3c0,0,0,0.1,0,0.2c-0.1,0-0.2,0-0.3,0c-0.5,0-0.9,0-1.3-0.1c-0.4,0-1-0.1-1.9-0.1  c-0.1,0-0.6,0-1.3,0.1c-0.3,0-0.5,0-0.6,0c0-0.1,0-0.1,0-0.2l0-0.2v-0.1c0.1-0.1,0.3-0.3,0.6-0.3c0.5-0.1,0.9-0.2,1.1-0.3  c0-0.1,0.1-0.2,0.1-0.4c0-0.6,0.1-1.5,0.1-2.8l0-2.8c0-0.8,0-1.2,0-1.4c0,0,0-0.1-0.1-0.1c0,0-0.1,0-0.1,0c-0.2,0-0.7,0-1.5,0  c-0.5,0-0.8,0-0.9,0.1c-0.2,0.1-0.5,0.5-1,1c-0.1,0.2-0.2,0.2-0.3,0.2c-0.2-0.1-0.4-0.2-0.4-0.3c0.2-0.3,0.4-1,0.6-1.9  C229,231.4,229,231.2,229.1,231.1z"></path>	<path d="M239.8,241.2v-0.5c0.1,0,0.3-0.1,0.5-0.1c0.3-0.1,0.6-0.2,0.7-0.2c0.1-0.2,0.1-0.4,0.1-0.6l0-0.9l0-1.7l0-0.4  c0-1,0.1-1.5,0.1-1.5l0-1l0-0.4l0-0.8l0-0.3c0,0,0-0.1-0.1-0.2c-0.2-0.1-0.5-0.2-1-0.2c-0.1,0-0.2,0-0.3,0l0-0.7l2.1,0.1  c0.3,0,0.4,0,0.5,0c0.3,0,0.8,0,1.4-0.1c0.4,0,0.6,0,0.7,0c0,0.1,0,0.2,0,0.2c0,0.1,0,0.2,0,0.3c-0.2,0.1-0.4,0.1-0.7,0.2  c-0.3,0.1-0.5,0.1-0.6,0.2c0,0.1,0,0.3,0,0.6c0,0.2,0,0.4,0,0.5c0,0.8,0,1.5,0,1.9l0,2l0,1l0,1.5l0,0.3c0,0,0,0.1,0,0.2  c0.3,0.1,0.6,0.1,0.8,0.1c0,0,0.2,0,0.5,0.1c0,0.1,0,0.3,0,0.4c0,0.1,0,0.1,0,0.3c-0.1,0-0.1,0-0.1,0c-0.2,0-0.3,0-0.3,0  c0,0-0.1,0-0.2,0c-0.1,0-0.4,0-1-0.1l-1.3,0c-0.3,0-0.6,0-1.1,0.1C240.1,241.2,239.9,241.2,239.8,241.2z"></path>	<path d="M245.7,232.1l0-0.5h0.6l0.2,0c0.3,0,0.5,0,0.6,0c0.1,0,0.2,0,0.5,0c0.1,0,0.1,0,0.2,0c0,0,0.2,0,0.5,0c0.3,0,0.4,0,0.5,0  c0.1,0,0.1,0,0.2,0c0.8,0.7,1.4,1.3,1.9,1.8c0.5,0.5,2.2,2.3,5.3,5.3v-0.2l0-0.9c0-0.5,0-0.9-0.1-1.2c0-0.3,0-0.6,0-1.1  c0-0.4,0-0.8-0.1-1.1c-0.1-0.7-0.1-1-0.1-1.1c0-0.3,0-0.5-0.1-0.6c-0.1-0.1-0.3-0.2-0.7-0.2c-0.3,0-0.5-0.1-0.6-0.2l0-0.4l0.2,0  l1.5,0l1.6,0c0.1,0,0.2,0,0.3,0l0,0.5c-0.1,0.1-0.2,0.1-0.4,0.1c-0.3,0.1-0.5,0.1-0.6,0.2c-0.3,0.1-0.4,0.2-0.4,0.3  c0,0.1-0.1,0.2-0.1,0.3c0,0,0,0.1,0,0.3c0,0.1,0,0.3,0,0.6c0,0.7,0,1.3,0.1,1.7c0,0.1,0,0.3,0,0.5l0.1,2.6c0,0.2,0,0.3,0,0.4v0.9  l0,0.4l0,0.4c0,0.2,0,0.3,0,0.4v0.4l-0.9,0l-0.9-0.9l-1.8-1.8l-1.3-1.3l-0.9-1c-0.6-0.6-1.2-1.1-1.7-1.6l-1.2-1.1l0.1,2.8  c0,0.2,0,0.3,0,0.5l0,0.5l0,1c0,0.4,0,0.9,0.1,1.3c0,0.1,0,0.2,0,0.3c0,0.1,0,0.1,0.1,0.2c0.2,0.1,0.6,0.1,1.3,0.2  c0,0,0.1,0,0.2,0.1l0,0.6l-0.3,0c-0.2,0-0.7,0-1.5-0.1c-0.8,0-1.3,0-1.6,0c-0.3,0-0.4,0-0.4,0c-0.1,0-0.1,0-0.2,0  c0-0.1,0-0.2,0-0.3c0-0.1,0-0.1,0-0.3c0.1,0,0.3,0,0.3,0c0,0,0.1,0,0.3,0c0.4,0,0.7,0,0.7-0.1c0.1-0.1,0.1-0.2,0.1-0.5  c0-0.8,0.1-1.3,0.1-1.4v-0.4l0-2.4l0-1.5c0-0.6,0-1-0.1-1.2c0-0.1-0.1-0.2-0.2-0.3c-0.2-0.2-0.4-0.3-0.6-0.4  C246.6,232.3,246.2,232.2,245.7,232.1z"></path>	<path d="M258.4,241.2l0-0.5c0.1,0,0.3-0.1,0.5-0.1c0.4-0.1,0.6-0.1,0.7-0.2c0.1-0.1,0.2-0.2,0.3-0.4l1.5-3.9l1.8-4.6  c0.2,0,0.3,0,0.5,0h0.3l0.1,0.1l1.3,3.1c0.3,0.7,0.6,1.3,0.8,1.9c0.2,0.6,0.4,1.1,0.6,1.5c0.1,0.2,0.2,0.6,0.4,1.1  c0.1,0.3,0.2,0.6,0.4,1c0.1,0.2,0.2,0.3,0.2,0.4c0.1,0.1,0.2,0.1,0.4,0.1c0.2,0,0.4,0.1,0.7,0.2c0,0.2,0,0.3,0,0.4c0,0,0,0.1,0,0.2  c-0.4,0-0.8,0-1.2-0.1c-0.4,0-0.8-0.1-1.2-0.1c-0.4,0-0.7,0-0.9,0l-1.3,0.1l-0.4,0c0-0.2,0-0.3,0-0.5l0.8-0.2  c0.2-0.1,0.4-0.1,0.4-0.1c0,0,0.1-0.1,0.1-0.2c0-0.1,0-0.1,0-0.2l-0.3-0.7l-0.6-1.5l-2.8,0c-0.1,0.2-0.3,0.8-0.7,1.8  c-0.1,0.3-0.1,0.4-0.1,0.5c0,0.1,0,0.2,0.1,0.3c0.1,0.1,0.3,0.2,0.7,0.2c0,0,0.2,0,0.5,0.1c0,0.2,0,0.3,0,0.4c0,0.1,0,0.1,0,0.2  c-0.3,0-1,0-2.2-0.1l-0.3,0.1c-0.4,0.1-0.7,0.1-1.1,0.1H258.4z M261.9,237c1.2,0,1.8,0,2.1,0l0.2,0c-0.1-0.4-0.3-1-0.6-1.5  c-0.2-0.6-0.4-1-0.6-1.3L261.9,237z"></path>	<path d="M30.9,256.9c0.1,0,0.2,0,0.5-0.1c0.5-0.1,0.8-0.2,0.9-0.3c0.1-0.1,0.1-0.2,0.2-0.5c0-0.1,0-0.8,0.1-2.3l0-0.8l0-1l0-2.5  v-0.3c0-0.1,0-0.2-0.1-0.3c0,0-0.1-0.1-0.3-0.1c-0.1,0-0.3,0-0.4,0c-0.2,0-0.4,0-0.6,0.1c0,0-0.1,0-0.1,0l0-0.7  c0.3-0.1,0.7-0.2,1.3-0.3c0.9-0.1,2-0.2,3.3-0.2c1.1,0,1.9,0.1,2.4,0.2c0.8,0.2,1.4,0.5,1.9,0.9c0.7,0.5,1.1,1.1,1.5,1.8  c0.3,0.7,0.5,1.4,0.5,2.2c0,1-0.2,1.9-0.7,2.6c-0.4,0.7-1.1,1.3-1.9,1.7c-0.6,0.3-1.4,0.5-2.4,0.5l-1.5-0.1l-0.4,0l-0.6,0l-0.2,0  l-0.6,0l-0.8,0c0,0-0.3,0-0.8,0c-0.2,0-0.4,0-0.6,0c-0.2,0-0.3,0-0.4,0C30.9,257.4,30.9,257.2,30.9,256.9z M34.5,248.6  c0,0.2,0,0.3,0,0.3l0,1.3v1.1c0,0.4,0,0.7,0,0.9l0,0.7l0,1.2l0,0.7c0,0.7,0.1,1.1,0.4,1.4c0.4,0.3,0.9,0.5,1.5,0.5  c0.5,0,0.9,0,1.1-0.1c0.5-0.2,0.9-0.4,1.2-0.8c0.3-0.3,0.5-0.8,0.7-1.3c0.1-0.6,0.2-1.2,0.2-1.8c0-1-0.2-1.8-0.5-2.5  c-0.3-0.6-0.8-1.1-1.3-1.4c-0.6-0.3-1.2-0.5-1.9-0.5C35.4,248.4,34.9,248.5,34.5,248.6z"></path>	<path d="M43.2,247.9c0.3,0,0.5,0,0.7,0.1c0.4,0.1,0.8,0.1,1.4,0.1c0.2,0,0.6,0,1.4,0c1.1,0,2.1-0.1,3-0.1l1.4,0  c0.3,0,0.8,0,1.3,0.1c0.1,0.1,0.1,0.2,0.1,0.4v1.5l0,0.3c0,0,0,0.1,0,0.1l-0.3,0c0,0-0.1,0-0.3,0c0-0.1-0.1-0.2-0.2-0.4l-0.3-0.5  c-0.1-0.2-0.3-0.5-0.5-0.7c-0.1,0-0.3-0.1-0.5-0.1c0,0-0.2,0-0.5,0c-0.5,0-1-0.1-1.5-0.1c-0.6,0-1.1,0-1.6,0c0,0.1,0,0.6,0,1.5  l0,1.3v0.9c0.1,0,0.2,0,0.3,0c0.9,0,1.5,0,1.9-0.1c0.4,0,0.6-0.1,0.7-0.1c0.1-0.1,0.2-0.2,0.2-0.3c0-0.1,0.1-0.5,0.3-1.1l0.1,0  l0.4,0c0,0.4,0,0.8,0,1c0,0.5,0,0.9,0,1c0,0.1,0,0.3,0,0.4c0,0.1,0,0.3,0,0.6c0,0.3,0,0.5,0,0.7v0.2h-0.5c0-0.1-0.1-0.2-0.1-0.5  c-0.1-0.5-0.2-0.8-0.3-0.9c-0.1-0.1-0.2-0.2-0.3-0.2c-0.1,0-0.5-0.1-1.1-0.1c-0.8,0-1.3,0-1.7,0.1c0,0.1,0,0.2,0,0.3  c0,0.6,0,1.1,0,1.5l0,1.6c0,0.2,0.1,0.3,0.2,0.4c0.2,0.1,0.8,0.2,1.9,0.2c0.7,0,1.3-0.1,1.8-0.2c0.3-0.1,0.6-0.2,0.9-0.5  c0.3-0.3,0.6-0.8,0.8-1.4c0.2,0,0.3,0,0.4,0c0.1,0,0.1,0,0.2,0c0,0.1,0,0.2,0,0.3l0,0.2l-0.3,1.4l-0.1,0.9c-0.3,0-0.6,0-0.8,0  c-0.3,0-1,0-2.2-0.1c-0.9,0-1.9-0.1-3.1-0.1c-0.6,0-1.3,0-2.2,0.1H44l-0.9,0v-0.5c0.1,0,0.3-0.1,0.6-0.1c0.5-0.1,0.9-0.1,1.1-0.2  c0.1-0.1,0.1-0.3,0.1-0.5c0-0.1,0-0.2,0-0.4l0-0.2l0-2.8l0-0.8l0-1.2l0-0.8l-0.1-0.9c0,0,0-0.1,0-0.1c0-0.1-0.1-0.1-0.2-0.1  c-0.1,0-0.1,0-0.2,0c-0.3-0.1-0.6-0.1-0.8-0.1c-0.1,0-0.2,0-0.3,0L43.2,247.9z"></path>	<path d="M58.6,256.9c0.2,0,0.4-0.1,0.7-0.1c0.3,0,0.4-0.1,0.5-0.1c0.2,0,0.3,0,0.4-0.1c0-0.1,0-0.2,0-0.3l0-1l0-1v-0.6l0-0.7l0-0.8  l0-1.7l0-0.8v-0.1c0-0.5-0.1-0.8-0.1-0.9c0-0.1-0.2-0.1-0.4-0.2c0,0-0.1,0-0.3-0.1c-0.1,0-0.2-0.1-0.3-0.1c-0.2,0-0.3-0.1-0.4-0.2  c0-0.1,0-0.2,0-0.3c0,0,0-0.1,0-0.2c0,0,0.1,0,0.1,0c0.1,0,0.6,0,1.3,0.1l1.1,0l0.8,0c0.3,0,0.8,0,1.3-0.1c0.2,0,0.3,0,0.3,0  c0.1,0,0.1,0,0.2,0.1c0,0.1,0.1,0.2,0.1,0.3c0,0.1,0,0.2-0.1,0.3c0,0-0.1,0.1-0.3,0.1l-0.9,0.2c0,0-0.1,0-0.1,0.1c0,0,0,0.1,0,0.1  l0,0.2l0,0.5v0.1v0.1c0,0,0,0.2,0,0.4c0,0.1,0,0.1,0,0.2c0,0.1,0,0.2,0,0.4c0,0.3,0,0.6,0,0.8c0,0.3,0,0.6,0,0.9c0,0.1,0,0.3,0,0.5  l0,3.5c0,0.1,0,0.2,0.1,0.3l0.7,0l0.4,0l0.5,0c0.8,0,1.4-0.1,1.9-0.3c0.3-0.1,0.6-0.3,0.7-0.4c0.2-0.1,0.3-0.3,0.4-0.5  c0.1-0.2,0.2-0.5,0.4-0.9h0.2c0.1,0,0.3,0,0.4,0v0.2c0,0.4,0,1-0.1,1.9c0,0.4-0.1,0.6-0.1,0.7c-0.1,0-0.2,0-0.2,0h-0.3l-0.4,0  c0,0-0.3,0-0.9-0.1c-0.1,0-0.6,0-1.4-0.1c-0.9,0-1.7,0-2.5,0l-1.5,0c-0.6,0-1.1,0-1.6,0.1h-0.1c0,0-0.1,0-0.1,0c0-0.1,0-0.1,0-0.1  C58.6,257.2,58.6,257,58.6,256.9z"></path>	<path d="M68.2,257.5l0-0.5c0.1,0,0.3-0.1,0.5-0.1c0.4-0.1,0.6-0.1,0.7-0.2c0.1-0.1,0.2-0.2,0.3-0.4l1.5-3.9l1.8-4.6  c0.2,0,0.3,0,0.5,0h0.3l0.1,0.1l1.3,3.1c0.3,0.7,0.6,1.3,0.8,1.9c0.2,0.6,0.4,1.1,0.6,1.5c0.1,0.2,0.2,0.6,0.4,1.1  c0.1,0.3,0.2,0.6,0.4,1c0.1,0.2,0.2,0.3,0.2,0.4c0.1,0.1,0.2,0.1,0.4,0.1c0.2,0,0.4,0.1,0.7,0.2c0,0.2,0,0.3,0,0.4c0,0,0,0.1,0,0.2  c-0.4,0-0.8,0-1.2-0.1c-0.4,0-0.8-0.1-1.2-0.1c-0.4,0-0.7,0-0.9,0l-1.3,0.1l-0.4,0c0-0.2,0-0.3,0-0.5l0.8-0.2  c0.2-0.1,0.4-0.1,0.4-0.1c0,0,0.1-0.1,0.1-0.2c0-0.1,0-0.1,0-0.2l-0.3-0.7l-0.6-1.5l-2.8,0c-0.1,0.2-0.3,0.8-0.7,1.8  c-0.1,0.3-0.1,0.4-0.1,0.5c0,0.1,0,0.2,0.1,0.3c0.1,0.1,0.3,0.2,0.7,0.2c0,0,0.2,0,0.5,0.1c0,0.2,0,0.3,0,0.4c0,0.1,0,0.1,0,0.2  c-0.3,0-1,0-2.2-0.1l-0.3,0.1c-0.4,0.1-0.7,0.1-1.1,0.1H68.2z M71.7,253.3c1.2,0,1.8,0,2.1,0l0.2,0c-0.1-0.4-0.3-1-0.6-1.5  c-0.2-0.6-0.4-1-0.6-1.3L71.7,253.3z"></path>	<path d="M83.6,257.5V257c0.1,0,0.3-0.1,0.5-0.1c0.3-0.1,0.6-0.2,0.7-0.2c0.1-0.2,0.1-0.4,0.1-0.6l0-0.9l0-1.7l0-0.4  c0-1,0.1-1.5,0.1-1.5l0-1l0-0.4l0-0.8l0-0.3c0,0,0-0.1-0.1-0.2c-0.2-0.1-0.5-0.2-1-0.2c-0.1,0-0.2,0-0.3,0l0-0.7l2.1,0.1  c0.3,0,0.4,0,0.5,0c0.3,0,0.8,0,1.4-0.1c0.4,0,0.6,0,0.7,0c0,0.1,0,0.2,0,0.2c0,0.1,0,0.2,0,0.3c-0.2,0.1-0.4,0.1-0.7,0.2  c-0.3,0.1-0.5,0.1-0.6,0.2c0,0.1,0,0.3,0,0.6c0,0.2,0,0.4,0,0.5c0,0.8,0,1.5,0,1.9l0,2l0,1l0,1.5l0,0.3c0,0,0,0.1,0,0.2  c0.3,0.1,0.6,0.1,0.8,0.1c0,0,0.2,0,0.5,0.1c0,0.1,0,0.3,0,0.4c0,0.1,0,0.1,0,0.3c-0.1,0-0.1,0-0.1,0c-0.2,0-0.3,0-0.3,0  c0,0-0.1,0-0.2,0c-0.1,0-0.4,0-1-0.1l-1.3,0c-0.3,0-0.6,0-1.1,0.1C83.9,257.5,83.7,257.5,83.6,257.5z"></path>	<path d="M89.5,248.5l0-0.5h0.6l0.2,0c0.3,0,0.5,0,0.6,0c0.1,0,0.2,0,0.5,0c0.1,0,0.1,0,0.2,0c0,0,0.2,0,0.5,0c0.3,0,0.4,0,0.5,0  c0.1,0,0.1,0,0.2,0c0.8,0.7,1.4,1.3,1.9,1.8c0.5,0.5,2.2,2.3,5.3,5.3v-0.2l0-0.9c0-0.5,0-0.9-0.1-1.2c0-0.3,0-0.6,0-1.1  c0-0.4,0-0.8-0.1-1.1c-0.1-0.7-0.1-1-0.1-1.1c0-0.3,0-0.5-0.1-0.6c-0.1-0.1-0.3-0.2-0.7-0.2c-0.3,0-0.5-0.1-0.6-0.2l0-0.4l0.2,0  l1.5,0l1.6,0c0.1,0,0.2,0,0.3,0l0,0.5c-0.1,0.1-0.2,0.1-0.4,0.1c-0.3,0.1-0.5,0.1-0.6,0.2c-0.3,0.1-0.4,0.2-0.4,0.3  c0,0.1-0.1,0.2-0.1,0.3c0,0,0,0.1,0,0.3c0,0.1,0,0.3,0,0.6c0,0.7,0,1.3,0.1,1.7c0,0.1,0,0.3,0,0.5l0.1,2.6c0,0.2,0,0.3,0,0.4v0.9  l0,0.4l0,0.4c0,0.2,0,0.3,0,0.4v0.4l-0.9,0l-0.9-0.9l-1.8-1.8l-1.3-1.3l-0.9-1c-0.6-0.6-1.2-1.1-1.7-1.6l-1.2-1.1l0.1,2.8  c0,0.2,0,0.3,0,0.5l0,0.5l0,1c0,0.4,0,0.9,0.1,1.3c0,0.1,0,0.2,0,0.3c0,0.1,0,0.1,0.1,0.2c0.2,0.1,0.6,0.1,1.3,0.2  c0,0,0.1,0,0.2,0.1l0,0.6l-0.3,0c-0.2,0-0.7,0-1.5-0.1c-0.8,0-1.3,0-1.6,0c-0.3,0-0.4,0-0.4,0c-0.1,0-0.1,0-0.2,0  c0-0.1,0-0.2,0-0.3c0-0.1,0-0.1,0-0.3c0.1,0,0.3,0,0.3,0c0,0,0.1,0,0.3,0c0.4,0,0.7,0,0.7-0.1c0.1-0.1,0.1-0.2,0.1-0.5  c0-0.8,0.1-1.3,0.1-1.4v-0.4l0-2.4l0-1.5c0-0.6,0-1-0.1-1.2c0-0.1-0.1-0.2-0.2-0.3c-0.2-0.2-0.4-0.3-0.6-0.4  C90.4,248.6,90,248.5,89.5,248.5z"></path>	<path d="M103.1,256.9c0.1,0,0.2,0,0.5-0.1c0.5-0.1,0.8-0.2,0.9-0.3c0.1-0.1,0.1-0.2,0.2-0.5c0-0.1,0-0.8,0.1-2.3l0-0.8l0-1l0-2.5  v-0.3c0-0.1,0-0.2-0.1-0.3c0,0-0.1-0.1-0.3-0.1c-0.1,0-0.3,0-0.4,0c-0.2,0-0.4,0-0.6,0.1c0,0-0.1,0-0.1,0l0-0.7  c0.3-0.1,0.7-0.2,1.3-0.3c0.9-0.1,2-0.2,3.3-0.2c1.1,0,1.9,0.1,2.4,0.2c0.8,0.2,1.4,0.5,1.9,0.9c0.7,0.5,1.1,1.1,1.5,1.8  c0.3,0.7,0.5,1.4,0.5,2.2c0,1-0.2,1.9-0.7,2.6c-0.4,0.7-1.1,1.3-1.9,1.7c-0.6,0.3-1.4,0.5-2.4,0.5l-1.5-0.1l-0.4,0l-0.6,0l-0.2,0  l-0.6,0l-0.8,0c0,0-0.3,0-0.8,0c-0.2,0-0.4,0-0.6,0c-0.2,0-0.3,0-0.4,0C103.1,257.4,103.1,257.2,103.1,256.9z M106.7,248.6  c0,0.2,0,0.3,0,0.3l0,1.3v1.1c0,0.4,0,0.7,0,0.9l0,0.7l0,1.2l0,0.7c0,0.7,0.1,1.1,0.4,1.4c0.4,0.3,0.9,0.5,1.5,0.5  c0.5,0,0.9,0,1.1-0.1c0.5-0.2,0.9-0.4,1.2-0.8c0.3-0.3,0.5-0.8,0.7-1.3c0.1-0.6,0.2-1.2,0.2-1.8c0-1-0.2-1.8-0.5-2.5  c-0.3-0.6-0.8-1.1-1.3-1.4c-0.6-0.3-1.2-0.5-1.9-0.5C107.5,248.4,107,248.5,106.7,248.6z"></path>	<path d="M115.3,248.5l0-0.6c0.1,0,0.2,0,0.3,0c0.2,0,0.5,0,0.8,0c0.7,0,1,0.1,1.2,0.1c0.4,0,0.8,0,1.2,0c0.4,0,0.7,0,1,0  c0.3,0,0.5,0,0.6,0l0,0.1l0,0.4v0.1c-0.3,0-0.6,0.1-0.9,0.1c-0.3,0-0.5,0.1-0.6,0.2c-0.1,0.1-0.1,0.4-0.1,0.9c0,0.2,0,0.3,0,0.4  l0,0.3l0,0.7l0,0.6l0,1.3l0.1,1.9c0,0.5,0.1,1,0.4,1.4c0.2,0.3,0.4,0.5,0.7,0.6c0.4,0.2,0.8,0.3,1.2,0.3c0.5,0,0.9-0.1,1.3-0.2  c0.2-0.1,0.5-0.2,0.7-0.3c0.2-0.2,0.4-0.3,0.5-0.4c0.2-0.3,0.3-0.5,0.4-0.8c0.1-0.3,0.1-0.8,0.1-1.5c0-1.2-0.1-2.6-0.2-4.1l0-0.4  c0-0.3-0.1-0.5-0.2-0.6c-0.2-0.2-0.3-0.2-0.5-0.2l-0.7,0l-0.1,0l0-0.6h0.6l1.4,0.1c0.5,0,0.9,0,1.4-0.1l0.1,0c0,0.2,0,0.3,0,0.3  c0,0.1,0,0.1,0,0.2c-0.2,0.1-0.4,0.1-0.6,0.1c-0.3,0-0.5,0.1-0.6,0.1c-0.1,0.1-0.1,0.2-0.1,0.3c0,0.1,0,0.2,0,0.4  c0,0.1,0,0.3,0,0.6c0,0.2,0,0.3,0,0.4c0,0.1,0,0.2,0,0.3c0,0.4,0,0.7,0,1.1l0.1,1.5c0,1,0,1.7-0.1,2c-0.1,0.3-0.2,0.6-0.3,0.8  c-0.2,0.3-0.4,0.6-0.8,0.8c-0.3,0.3-0.8,0.5-1.3,0.6c-0.5,0.1-1.1,0.2-1.8,0.2c-0.8,0-1.4-0.1-2-0.3c-0.6-0.2-1-0.5-1.2-0.8  c-0.3-0.3-0.5-0.8-0.6-1.3c-0.1-0.4-0.1-0.9-0.1-1.6v-3.6c0-0.8,0-1.3-0.1-1.4c-0.1-0.2-0.4-0.2-1-0.3  C115.5,248.5,115.4,248.5,115.3,248.5z"></path>	<path d="M133.3,248.1c0,0.2,0.1,0.4,0.1,0.8c0.1,0.5,0.1,0.9,0.1,1.2c0,0.1,0,0.2,0,0.3l-0.1,0l-0.5,0l-0.1,0  c-0.2-0.7-0.4-1.1-0.7-1.3c-0.4-0.4-0.8-0.6-1.3-0.6c-0.5,0-0.9,0.1-1.2,0.4c-0.3,0.3-0.4,0.6-0.4,1c0,0.3,0.1,0.6,0.4,0.9  c0.3,0.3,0.9,0.6,1.8,0.8c0.3,0.1,0.7,0.2,1.1,0.4c0.4,0.2,0.8,0.4,1,0.6c0.3,0.3,0.5,0.6,0.6,0.9c0.1,0.3,0.2,0.6,0.2,1.1  c0,0.5-0.1,0.9-0.3,1.4c-0.1,0.2-0.2,0.5-0.5,0.7c-0.1,0.1-0.4,0.3-0.7,0.5c-0.3,0.2-0.6,0.3-1,0.4c-0.3,0.1-0.8,0.1-1.3,0.1  c-0.3,0-0.8,0-1.2-0.1l-0.9-0.3c-0.2-0.1-0.4-0.1-0.5-0.2c0,0,0-0.1-0.1-0.1v-0.1c0-0.1,0-0.4,0-1c0-0.3,0-0.6,0-0.7v-0.3l0.7,0  c0.2,0.6,0.4,0.9,0.5,1c0.2,0.3,0.3,0.5,0.5,0.6c0.2,0.2,0.4,0.3,0.7,0.4c0.3,0.1,0.5,0.1,0.8,0.1c0.3,0,0.6-0.1,0.9-0.2  c0.3-0.1,0.6-0.3,0.8-0.6c0.2-0.3,0.3-0.5,0.3-0.8c0-0.4-0.2-0.7-0.5-1c-0.2-0.2-0.8-0.5-1.7-0.8c-0.9-0.3-1.5-0.6-1.9-0.9  c-0.4-0.3-0.6-0.6-0.8-1c-0.2-0.4-0.3-0.8-0.3-1.2c0-0.8,0.3-1.5,0.9-2c0.6-0.6,1.4-0.8,2.5-0.8c0.2,0,0.6,0,1.1,0.1  C132.5,247.8,132.8,247.9,133.3,248.1z"></path>	<path d="M136,247.5h0.5c0,0.1,0.1,0.1,0.1,0.1c0.1,0.2,0.2,0.4,0.3,0.5c0.1,0,0.4,0,1,0c0.4,0,0.7,0,1,0l0.1,0l0.9,0l1.7,0h2.3  l0.4-0.1c0.1,0,0.1-0.2,0.2-0.4c0,0,0-0.1,0.1-0.2l0.3,0c0,0,0.1,0,0.2,0c0,0.3,0,0.9,0,1.6l0,0.7l0,0.4c0,0.1,0,0.2,0,0.3  c-0.2,0.1-0.4,0.1-0.5,0.1c-0.1-0.2-0.3-0.5-0.4-0.8c-0.2-0.4-0.2-0.6-0.3-0.6c-0.1-0.1-0.1-0.1-0.2-0.1c-0.1,0-0.6,0-1.6,0  c-0.1,0-0.3,0-0.5,0c0,0.2,0,0.4,0,0.5l0,1v2.2l0,2.4l0,1c0,0.3,0,0.6,0.1,0.8c0.1,0,0.2,0.1,0.4,0.1c0,0,0.2,0,0.6,0.1  c0.1,0,0.3,0.1,0.4,0.1c0,0.2,0,0.3,0,0.3c0,0,0,0.1,0,0.2c-0.1,0-0.2,0-0.3,0c-0.5,0-0.9,0-1.3-0.1c-0.4,0-1-0.1-1.9-0.1  c-0.1,0-0.6,0-1.3,0.1c-0.3,0-0.5,0-0.6,0c0-0.1,0-0.1,0-0.2l0-0.2v-0.1c0.1-0.1,0.3-0.3,0.6-0.3c0.5-0.1,0.9-0.2,1.1-0.3  c0-0.1,0.1-0.2,0.1-0.4c0-0.6,0.1-1.5,0.1-2.8l0-2.8c0-0.8,0-1.2,0-1.4c0,0,0-0.1-0.1-0.1c0,0-0.1,0-0.1,0c-0.2,0-0.7,0-1.5,0  c-0.5,0-0.8,0-0.9,0.1c-0.2,0.1-0.5,0.5-1,1c-0.1,0.2-0.2,0.2-0.3,0.2c-0.2-0.1-0.4-0.2-0.4-0.3c0.2-0.3,0.4-1,0.6-1.9  C135.9,247.7,135.9,247.6,136,247.5z"></path>	<path d="M146.7,257.1c0.1-0.1,0.3-0.1,0.6-0.2c0.3,0,0.5-0.1,0.7-0.2c0-0.1,0-0.2,0-0.2c0-0.1,0-0.3,0-0.7l0-1.7l0-0.9l0-0.7l0-0.4  c0-0.5,0-1,0-1.5c0-1,0-1.7,0-2l-0.4-0.1c-0.4,0-0.7,0-0.8-0.1l0-0.4l0-0.1c0.2,0,0.5-0.1,0.7-0.1c0.1,0,0.3,0,0.7,0  c0.4,0,0.6,0,0.6,0l0.4,0l0.9,0c0.6-0.1,1.2-0.1,1.8-0.1c1,0,1.8,0.3,2.4,0.8c0.6,0.5,0.9,1.1,0.9,1.8c0,0.5-0.2,1-0.5,1.4  c-0.3,0.4-0.8,0.7-1.5,0.9c0.1,0.1,0.1,0.2,0.2,0.4c0.2,0.3,0.4,0.6,0.5,0.8l1.2,1.9c0.3,0.5,0.5,0.8,0.6,0.9  c0.1,0.1,0.3,0.2,0.6,0.3c0.2,0.1,0.4,0.2,0.5,0.3c0,0.1,0,0.2,0,0.2c0,0,0,0.1,0,0.2h-0.2l-0.1,0l-0.4-0.1h-0.3  c-0.2,0-0.4,0-0.6,0l-0.7,0c-0.1,0-0.2,0-0.5,0.1c-0.1,0-0.2,0-0.3,0l-0.3-0.5c-0.2-0.4-0.4-0.7-0.4-0.8c-0.2-0.5-0.6-1.3-1.1-2.3  c-0.2-0.5-0.4-0.8-0.5-0.8c-0.1-0.1-0.4-0.2-0.8-0.2c-0.1,0-0.3,0-0.5,0c0,0.1,0,0.3,0,0.5l0,1.7l0,1.4c0.1,0.1,0.3,0.1,0.5,0.2  c0.4,0.1,0.7,0.2,1,0.3c0,0.2,0,0.4,0,0.6c-0.1,0-0.2,0-0.2,0l-0.3,0c-1.1-0.1-1.7-0.1-1.9-0.1c-0.1,0-0.2,0-0.3,0l-1,0.1  c-0.3,0-0.6,0.1-0.9,0.1h-0.3c0-0.1,0-0.2,0-0.2C146.7,257.2,146.7,257.2,146.7,257.1z M150,252.2c0.2,0,0.4,0,0.5,0  c0.8,0,1.4-0.2,1.8-0.5c0.4-0.3,0.5-0.7,0.5-1.2c0-0.3,0-0.6-0.1-0.9c-0.1-0.3-0.2-0.5-0.3-0.6c-0.2-0.2-0.4-0.3-0.7-0.4  c-0.2-0.1-0.6-0.1-1-0.1c-0.2,0-0.4,0-0.6,0l0,0.1l0,1l0,0.6l0,0.8c0,0.2,0,0.5,0,0.9V252.2z"></path>	<path d="M157.7,257.5V257c0.1,0,0.3-0.1,0.5-0.1c0.3-0.1,0.6-0.2,0.7-0.2c0.1-0.2,0.1-0.4,0.1-0.6l0-0.9l0-1.7l0-0.4  c0-1,0.1-1.5,0.1-1.5l0-1l0-0.4l0-0.8l0-0.3c0,0,0-0.1-0.1-0.2c-0.2-0.1-0.5-0.2-1-0.2c-0.1,0-0.2,0-0.3,0l0-0.7l2.1,0.1  c0.3,0,0.4,0,0.5,0c0.3,0,0.8,0,1.4-0.1c0.4,0,0.6,0,0.7,0c0,0.1,0,0.2,0,0.2c0,0.1,0,0.2,0,0.3c-0.2,0.1-0.4,0.1-0.7,0.2  s-0.5,0.1-0.6,0.2c0,0.1,0,0.3,0,0.6c0,0.2,0,0.4,0,0.5c0,0.8,0,1.5,0,1.9l0,2l0,1l0,1.5l0,0.3c0,0,0,0.1,0,0.2  c0.3,0.1,0.6,0.1,0.8,0.1c0,0,0.2,0,0.5,0.1c0,0.1,0,0.3,0,0.4c0,0.1,0,0.1,0,0.3c-0.1,0-0.1,0-0.1,0c-0.2,0-0.3,0-0.3,0  c0,0-0.1,0-0.2,0c-0.1,0-0.4,0-1-0.1l-1.3,0c-0.3,0-0.6,0-1.1,0.1C158,257.5,157.8,257.5,157.7,257.5z"></path>	<path d="M163.3,257.5l0-0.5c0.1,0,0.3-0.1,0.5-0.1c0.4-0.1,0.6-0.1,0.7-0.2c0.1-0.1,0.2-0.2,0.3-0.4l1.5-3.9l1.8-4.6  c0.2,0,0.3,0,0.5,0h0.3l0.1,0.1l1.3,3.1c0.3,0.7,0.6,1.3,0.8,1.9c0.2,0.6,0.4,1.1,0.6,1.5c0.1,0.2,0.2,0.6,0.4,1.1  c0.1,0.3,0.2,0.6,0.4,1c0.1,0.2,0.2,0.3,0.2,0.4c0.1,0.1,0.2,0.1,0.4,0.1c0.2,0,0.4,0.1,0.7,0.2c0,0.2,0,0.3,0,0.4c0,0,0,0.1,0,0.2  c-0.4,0-0.8,0-1.2-0.1c-0.4,0-0.8-0.1-1.2-0.1c-0.4,0-0.7,0-0.9,0l-1.3,0.1l-0.4,0c0-0.2,0-0.3,0-0.5l0.8-0.2  c0.2-0.1,0.4-0.1,0.4-0.1c0,0,0.1-0.1,0.1-0.2c0-0.1,0-0.1,0-0.2l-0.3-0.7l-0.6-1.5l-2.8,0c-0.1,0.2-0.3,0.8-0.7,1.8  c-0.1,0.3-0.1,0.4-0.1,0.5c0,0.1,0,0.2,0.1,0.3c0.1,0.1,0.3,0.2,0.7,0.2c0,0,0.2,0,0.5,0.1c0,0.2,0,0.3,0,0.4c0,0.1,0,0.1,0,0.2  c-0.3,0-1,0-2.2-0.1l-0.3,0.1c-0.4,0.1-0.7,0.1-1.1,0.1H163.3z M166.8,253.3c1.2,0,1.8,0,2.1,0l0.2,0c-0.1-0.4-0.3-1-0.6-1.5  c-0.2-0.6-0.4-1-0.6-1.3L166.8,253.3z"></path>	<path d="M187.3,248c0.1,0.1,0.2,0.6,0.4,1.3c0.1,0.3,0.1,0.7,0.1,1h-0.7c-0.5-0.7-1-1.2-1.5-1.5c-0.5-0.3-1.1-0.4-1.7-0.4  c-0.8,0-1.4,0.3-1.9,0.9c-0.6,0.8-1,2-1,3.4c0,0.8,0.1,1.4,0.2,1.8c0.2,0.6,0.4,1.1,0.7,1.4c0.2,0.3,0.5,0.5,0.8,0.7  c0.4,0.2,0.9,0.3,1.4,0.3c0.5,0,1.1-0.2,1.6-0.5c0.5-0.3,1-0.8,1.5-1.5c0.2,0,0.4-0.1,0.7-0.1c0,0.2-0.1,0.4-0.1,0.6  c0,0.1-0.1,0.4-0.2,0.9l-0.1,0.2l-0.1,0.3c-0.3,0.2-0.7,0.4-1.3,0.5c-0.5,0.1-1.2,0.2-2,0.2c-0.6,0-1.2-0.1-1.7-0.2  c-0.5-0.1-1-0.3-1.4-0.5c-0.6-0.4-1-0.7-1.3-1.2c-0.3-0.4-0.6-0.9-0.7-1.4c-0.2-0.5-0.2-1-0.2-1.7c0-1.5,0.5-2.7,1.5-3.7  c1-1,2.2-1.4,3.7-1.4c0.6,0,1.2,0,1.7,0.1C186.3,247.8,186.8,247.9,187.3,248z"></path>	<path d="M189.5,257.5V257c0.1,0,0.3-0.1,0.5-0.1c0.3-0.1,0.6-0.2,0.7-0.2c0.1-0.2,0.1-0.4,0.1-0.6l0-0.9l0-1.7l0-0.4  c0-1,0.1-1.5,0.1-1.5l0-1l0-0.4l0-0.8l0-0.3c0,0,0-0.1-0.1-0.2c-0.2-0.1-0.5-0.2-1-0.2c-0.1,0-0.2,0-0.3,0l0-0.7l2.1,0.1  c0.3,0,0.4,0,0.5,0c0.3,0,0.8,0,1.4-0.1c0.4,0,0.6,0,0.7,0c0,0.1,0,0.2,0,0.2c0,0.1,0,0.2,0,0.3c-0.2,0.1-0.4,0.1-0.7,0.2  c-0.3,0.1-0.5,0.1-0.6,0.2c0,0.1,0,0.3,0,0.6c0,0.2,0,0.4,0,0.5c0,0.8,0,1.5,0,1.9l0,2l0,1l0,1.5l0,0.3c0,0,0,0.1,0,0.2  c0.3,0.1,0.6,0.1,0.8,0.1c0,0,0.2,0,0.5,0.1c0,0.1,0,0.3,0,0.4c0,0.1,0,0.1,0,0.3c-0.1,0-0.1,0-0.1,0c-0.2,0-0.3,0-0.3,0  c0,0-0.1,0-0.2,0c-0.1,0-0.4,0-1-0.1l-1.3,0c-0.3,0-0.6,0-1.1,0.1C189.8,257.5,189.6,257.5,189.5,257.5z"></path>	<path d="M195.4,248.5l0-0.5h0.6l0.2,0c0.3,0,0.5,0,0.6,0c0.1,0,0.2,0,0.5,0c0.1,0,0.1,0,0.2,0c0,0,0.2,0,0.5,0c0.3,0,0.4,0,0.5,0  c0.1,0,0.1,0,0.2,0c0.8,0.7,1.4,1.3,1.9,1.8c0.5,0.5,2.2,2.3,5.3,5.3v-0.2l0-0.9c0-0.5,0-0.9-0.1-1.2c0-0.3,0-0.6,0-1.1  c0-0.4,0-0.8-0.1-1.1c-0.1-0.7-0.1-1-0.1-1.1c0-0.3,0-0.5-0.1-0.6c-0.1-0.1-0.3-0.2-0.7-0.2c-0.3,0-0.5-0.1-0.6-0.2l0-0.4l0.2,0  l1.5,0l1.6,0c0.1,0,0.2,0,0.3,0l0,0.5c-0.1,0.1-0.2,0.1-0.4,0.1c-0.3,0.1-0.5,0.1-0.6,0.2c-0.3,0.1-0.4,0.2-0.4,0.3  c0,0.1-0.1,0.2-0.1,0.3c0,0,0,0.1,0,0.3c0,0.1,0,0.3,0,0.6c0,0.7,0,1.3,0.1,1.7c0,0.1,0,0.3,0,0.5l0.1,2.6c0,0.2,0,0.3,0,0.4v0.9  l0,0.4l0,0.4c0,0.2,0,0.3,0,0.4v0.4l-0.9,0l-0.9-0.9l-1.8-1.8l-1.3-1.3l-0.9-1c-0.6-0.6-1.2-1.1-1.7-1.6l-1.2-1.1l0.1,2.8  c0,0.2,0,0.3,0,0.5l0,0.5l0,1c0,0.4,0,0.9,0.1,1.3c0,0.1,0,0.2,0,0.3c0,0.1,0,0.1,0.1,0.2c0.2,0.1,0.6,0.1,1.3,0.2  c0,0,0.1,0,0.2,0.1l0,0.6l-0.3,0c-0.2,0-0.7,0-1.5-0.1c-0.8,0-1.3,0-1.6,0c-0.3,0-0.4,0-0.4,0c-0.1,0-0.1,0-0.2,0  c0-0.1,0-0.2,0-0.3c0-0.1,0-0.1,0-0.3c0.1,0,0.3,0,0.3,0c0,0,0.1,0,0.3,0c0.4,0,0.7,0,0.7-0.1c0.1-0.1,0.1-0.2,0.1-0.5  c0-0.8,0.1-1.3,0.1-1.4v-0.4l0-2.4l0-1.5c0-0.6,0-1-0.1-1.2c0-0.1-0.1-0.2-0.2-0.3c-0.2-0.2-0.4-0.3-0.6-0.4  C196.3,248.6,195.9,248.5,195.4,248.5z"></path>	<path d="M208.9,247.9c0.3,0,0.5,0,0.7,0.1c0.4,0.1,0.8,0.1,1.4,0.1c0.2,0,0.6,0,1.4,0c1.1,0,2.1-0.1,3-0.1l1.4,0  c0.3,0,0.8,0,1.3,0.1c0.1,0.1,0.1,0.2,0.1,0.4v1.5l0,0.3c0,0,0,0.1,0,0.1l-0.3,0c0,0-0.1,0-0.3,0c0-0.1-0.1-0.2-0.2-0.4l-0.3-0.5  c-0.1-0.2-0.3-0.5-0.5-0.7c-0.1,0-0.3-0.1-0.5-0.1c0,0-0.2,0-0.5,0c-0.5,0-1-0.1-1.5-0.1c-0.6,0-1.1,0-1.6,0c0,0.1,0,0.6,0,1.5  l0,1.3v0.9c0.1,0,0.2,0,0.3,0c0.9,0,1.5,0,1.9-0.1c0.4,0,0.6-0.1,0.7-0.1c0.1-0.1,0.2-0.2,0.2-0.3c0-0.1,0.1-0.5,0.3-1.1l0.1,0  l0.4,0c0,0.4,0,0.8,0,1c0,0.5,0,0.9,0,1c0,0.1,0,0.3,0,0.4c0,0.1,0,0.3,0,0.6c0,0.3,0,0.5,0,0.7v0.2h-0.5c0-0.1-0.1-0.2-0.1-0.5  c-0.1-0.5-0.2-0.8-0.3-0.9c-0.1-0.1-0.2-0.2-0.3-0.2c-0.1,0-0.5-0.1-1.1-0.1c-0.8,0-1.3,0-1.7,0.1c0,0.1,0,0.2,0,0.3  c0,0.6,0,1.1,0,1.5l0,1.6c0,0.2,0.1,0.3,0.2,0.4c0.2,0.1,0.8,0.2,1.9,0.2c0.7,0,1.3-0.1,1.8-0.2c0.3-0.1,0.6-0.2,0.9-0.5  c0.3-0.3,0.6-0.8,0.8-1.4c0.2,0,0.3,0,0.4,0c0.1,0,0.1,0,0.2,0c0,0.1,0,0.2,0,0.3l0,0.2l-0.3,1.4l-0.1,0.9c-0.3,0-0.6,0-0.8,0  c-0.3,0-1,0-2.2-0.1c-0.9,0-1.9-0.1-3.1-0.1c-0.6,0-1.3,0-2.2,0.1h-0.3l-0.9,0v-0.5c0.1,0,0.3-0.1,0.6-0.1c0.5-0.1,0.9-0.1,1.1-0.2  c0.1-0.1,0.1-0.3,0.1-0.5c0-0.1,0-0.2,0-0.4l0-0.2l0-2.8l0-0.8l0-1.2l0-0.8l-0.1-0.9c0,0,0-0.1,0-0.1c0-0.1-0.1-0.1-0.2-0.1  c-0.1,0-0.1,0-0.2,0c-0.3-0.1-0.6-0.1-0.8-0.1c-0.1,0-0.2,0-0.3,0L208.9,247.9z"></path>	<path d="M220.1,257.5l0-0.5c0.6-0.1,1-0.2,1.2-0.4c0.1-0.1,0.2-0.4,0.3-0.9l0.1-2.7l0.1-2.7c0-0.2,0-0.3,0-0.3c0-0.7,0-1.1-0.1-1.2  c-0.1-0.1-0.4-0.2-1-0.3c-0.1,0-0.2-0.1-0.3-0.1c0-0.1,0-0.2,0-0.3v-0.2c0.2,0,0.4,0,0.6,0l2.2,0.1c0,0,0.1,0,0.2,0l0.3,0  c0.1,0.1,0.2,0.2,0.3,0.4c0.2,0.4,0.4,0.9,0.7,1.6l0.1,0.2l1.2,2.5c0,0.1,0.1,0.1,0.1,0.3c0.1,0.2,0.2,0.3,0.2,0.5  c0.1,0.2,0.2,0.3,0.3,0.5s0.2,0.4,0.2,0.5c0.1-0.1,0.1-0.3,0.2-0.4c0.2-0.5,0.4-0.9,0.6-1.3c0.3-0.7,0.8-1.7,1.3-3.1  c0.1-0.2,0.2-0.6,0.4-1c0.2-0.5,0.3-0.7,0.3-0.7c0,0,0.1-0.1,0.3-0.1c0,0,0.1,0,0.2,0c0.3,0,0.6,0,0.9,0c0.5,0,0.9,0,1.3,0  c0.3,0,0.5,0,0.5,0c0,0,0.1,0,0.2,0c0,0.1,0,0.1,0,0.2l0,0.2c0,0,0,0.1,0,0.2c-0.5,0.1-0.8,0.2-1.1,0.3c-0.2,0.1-0.3,0.2-0.3,0.4  v0.1l0.1,2.3c0,0.2,0.1,1.2,0.1,3.1c0,0.4,0,0.9,0.1,1.6c0,0.1,0,0.1,0,0.2c0,0.1,0,0.2,0.1,0.2c0,0,0.5,0.2,1.3,0.4  c0,0.1,0,0.1,0,0.2c0,0.1,0,0.2,0,0.3c-0.1,0-0.5,0-1-0.1c-0.5-0.1-1-0.1-1.5-0.1c-0.7,0-1.4,0-2.1,0.1c-0.1,0-0.2,0-0.3,0l0-0.5  c0.2-0.1,0.5-0.1,0.8-0.2c0.2,0,0.4-0.1,0.5-0.2c0.1-0.1,0.1-0.4,0.1-0.8c0-0.2,0-0.3,0-0.4c0-0.5,0-1.2,0-2.2l-0.1-2.6  c0-0.4,0-0.6-0.1-0.8l-1.9,4.3c0,0.1-0.1,0.2-0.2,0.4c-0.1,0.2-0.2,0.4-0.2,0.5c-0.4,0.9-0.6,1.6-0.8,2.1c0,0.1-0.1,0.3-0.2,0.5  l-0.6,0l-0.4-1.1c-0.1-0.3-0.3-0.8-0.6-1.4c-0.2-0.4-0.3-0.6-0.4-0.9c0-0.1-0.1-0.2-0.1-0.2l-0.1-0.2c0,0,0-0.1,0-0.1l-1.1-2.4  l-0.7-1.5l-0.1,3.5l-0.1,2.3c0,0.4,0.1,0.6,0.2,0.8c0.1,0.2,0.4,0.3,0.9,0.4l0.4,0.1v0.5c-0.3,0-0.6,0-0.9-0.1  c-0.3,0-0.8-0.1-1.3-0.1C221.4,257.5,221,257.5,220.1,257.5z"></path>	<path d="M234,257.5l0-0.5c0.1,0,0.3-0.1,0.5-0.1c0.4-0.1,0.6-0.1,0.7-0.2c0.1-0.1,0.2-0.2,0.3-0.4l1.5-3.9l1.8-4.6  c0.2,0,0.3,0,0.5,0h0.3l0.1,0.1l1.3,3.1c0.3,0.7,0.6,1.3,0.8,1.9c0.2,0.6,0.4,1.1,0.6,1.5c0.1,0.2,0.2,0.6,0.4,1.1  c0.1,0.3,0.2,0.6,0.4,1c0.1,0.2,0.2,0.3,0.2,0.4c0.1,0.1,0.2,0.1,0.4,0.1c0.2,0,0.4,0.1,0.7,0.2c0,0.2,0,0.3,0,0.4c0,0,0,0.1,0,0.2  c-0.4,0-0.8,0-1.2-0.1c-0.4,0-0.8-0.1-1.2-0.1c-0.4,0-0.7,0-0.9,0l-1.3,0.1l-0.4,0c0-0.2,0-0.3,0-0.5l0.8-0.2  c0.2-0.1,0.4-0.1,0.4-0.1c0,0,0.1-0.1,0.1-0.2c0-0.1,0-0.1,0-0.2l-0.3-0.7l-0.6-1.5l-2.8,0c-0.1,0.2-0.3,0.8-0.7,1.8  c-0.1,0.3-0.1,0.4-0.1,0.5c0,0.1,0,0.2,0.1,0.3c0.1,0.1,0.3,0.2,0.7,0.2c0,0,0.2,0,0.5,0.1c0,0.2,0,0.3,0,0.4c0,0.1,0,0.1,0,0.2  c-0.3,0-1,0-2.2-0.1l-0.3,0.1c-0.4,0.1-0.7,0.1-1.1,0.1H234z M237.5,253.3c1.2,0,1.8,0,2.1,0l0.2,0c-0.1-0.4-0.3-1-0.6-1.5  c-0.2-0.6-0.4-1-0.6-1.3L237.5,253.3z"></path>	<path d="M245.4,247.5h0.5c0,0.1,0.1,0.1,0.1,0.1c0.1,0.2,0.2,0.4,0.3,0.5c0.1,0,0.4,0,1,0c0.4,0,0.7,0,1,0l0.1,0l0.9,0l1.7,0h2.3  l0.4-0.1c0.1,0,0.1-0.2,0.2-0.4c0,0,0-0.1,0.1-0.2l0.3,0c0,0,0.1,0,0.2,0c0,0.3,0,0.9,0,1.6l0,0.7l0,0.4c0,0.1,0,0.2,0,0.3  c-0.2,0.1-0.4,0.1-0.5,0.1c-0.1-0.2-0.3-0.5-0.4-0.8c-0.2-0.4-0.2-0.6-0.3-0.6c-0.1-0.1-0.1-0.1-0.2-0.1c-0.1,0-0.6,0-1.6,0  c-0.1,0-0.3,0-0.5,0c0,0.2,0,0.4,0,0.5l0,1v2.2l0,2.4l0,1c0,0.3,0,0.6,0.1,0.8c0.1,0,0.2,0.1,0.4,0.1c0,0,0.2,0,0.6,0.1  c0.1,0,0.3,0.1,0.4,0.1c0,0.2,0,0.3,0,0.3c0,0,0,0.1,0,0.2c-0.1,0-0.2,0-0.3,0c-0.5,0-0.9,0-1.3-0.1c-0.4,0-1-0.1-1.9-0.1  c-0.1,0-0.6,0-1.3,0.1c-0.3,0-0.5,0-0.6,0c0-0.1,0-0.1,0-0.2l0-0.2v-0.1c0.1-0.1,0.3-0.3,0.6-0.3c0.5-0.1,0.9-0.2,1.1-0.3  c0-0.1,0.1-0.2,0.1-0.4c0-0.6,0.1-1.5,0.1-2.8l0-2.8c0-0.8,0-1.2,0-1.4c0,0,0-0.1-0.1-0.1c0,0-0.1,0-0.1,0c-0.2,0-0.7,0-1.5,0  c-0.5,0-0.8,0-0.9,0.1c-0.2,0.1-0.5,0.5-1,1c-0.1,0.2-0.2,0.2-0.3,0.2c-0.2-0.1-0.4-0.2-0.4-0.3c0.2-0.3,0.4-1,0.6-1.9  C245.3,247.7,245.3,247.6,245.4,247.5z"></path>	<path d="M255.8,252.6c0-0.6,0.1-1.2,0.4-1.9c0.2-0.4,0.4-0.9,0.7-1.2c0.3-0.4,0.7-0.7,1.2-1c0.5-0.3,1-0.5,1.4-0.6  c0.5-0.1,1-0.2,1.6-0.2c1,0,1.9,0.2,2.7,0.6c0.8,0.4,1.4,0.9,1.8,1.6c0.6,0.9,0.8,1.8,0.8,2.7c0,1.4-0.5,2.6-1.4,3.6  c-1,1-2.3,1.5-4,1.5c-0.4,0-0.8,0-1.2-0.1c-0.3,0-0.5-0.1-0.7-0.2c-0.4-0.1-0.6-0.2-0.6-0.2c-0.5-0.3-1-0.6-1.3-0.9  c-0.3-0.3-0.6-0.7-0.8-1.1c-0.1-0.2-0.3-0.6-0.4-1.2C255.9,253.5,255.8,253.1,255.8,252.6z M260.9,248.4c-0.4,0-0.8,0.1-1.1,0.3  c-0.3,0.2-0.6,0.4-0.8,0.7c-0.3,0.4-0.5,0.9-0.6,1.4c-0.1,0.5-0.2,1.1-0.2,1.8c0,0.4,0,0.7,0.1,0.9c0,0.1,0,0.2,0,0.3  c0,0.4,0.1,0.6,0.2,0.8c0.2,0.6,0.4,1,0.5,1.2c0.1,0.3,0.4,0.5,0.7,0.8c0.1,0.1,0.4,0.2,0.6,0.4c0.3,0.1,0.6,0.2,0.8,0.2  c0.5,0,1-0.1,1.5-0.4c0.5-0.3,0.8-0.7,1.1-1.3c0.3-0.6,0.4-1.4,0.4-2.3c0-0.4,0-0.9-0.1-1.6l0-0.1c0,0,0-0.1-0.1-0.3  c-0.2-0.8-0.5-1.4-1.1-1.9C262.4,248.6,261.7,248.4,260.9,248.4z"></path>	<path d="M277.3,248.5c0,0.1,0.1,0.4,0.1,0.9c0,0.4,0.1,0.7,0.1,0.9c0,0.1,0,0.2-0.1,0.3c-0.2,0-0.4,0-0.5-0.1  c-0.4-0.6-0.6-0.9-0.8-1.1c-0.3-0.3-0.7-0.5-1.1-0.7c-0.3-0.1-0.7-0.2-1.1-0.2c-0.8,0-1.6,0.4-2.2,1.1c-0.6,0.7-0.9,1.9-0.9,3.3  c0,0.7,0.1,1.4,0.4,2c0.2,0.7,0.6,1.2,1.1,1.5c0.5,0.4,1.1,0.6,1.7,0.6c0.3,0,0.7,0,1-0.1c0.2,0,0.3-0.1,0.4-0.2  c0.1-0.1,0.1-0.2,0.2-0.4c0-0.3,0.1-0.7,0.1-1.2c0-0.5,0-0.9,0-1.1c0-0.1-0.1-0.1-0.1-0.1c0,0-0.1-0.1-0.3-0.1l-0.7-0.2  c-0.1,0-0.2-0.1-0.3-0.1c0-0.1,0-0.1,0-0.1c0-0.1,0-0.2,0.1-0.3c0.1,0,0.2,0,0.2,0c0.5,0,1,0,1.4,0.1c0.1,0,0.3,0,0.5,0l1.2,0  l0.5,0c0.1,0,0.2,0,0.5,0c0,0.1,0,0.2,0,0.3c0,0.1,0,0.1-0.1,0.2c-0.1,0.1-0.2,0.1-0.4,0.2c-0.2,0.1-0.3,0.1-0.3,0.2  c0,0-0.1,0.1-0.1,0.2c0,0.1,0,0.4,0,0.9c0,0.6,0,0.9,0,1.1c0,0.4,0,0.6,0,0.6c0,0.2,0,0.3-0.1,0.3c-0.1,0.1-0.6,0.3-1.3,0.5  c-0.7,0.2-1.6,0.3-2.5,0.3c-0.7,0-1.3-0.1-1.8-0.2c-0.5-0.1-0.9-0.3-1.3-0.5c-0.5-0.3-0.9-0.6-1.2-1c-0.3-0.4-0.6-0.8-0.7-1.3  c-0.2-0.7-0.3-1.3-0.3-2c0-0.7,0.2-1.5,0.5-2.2c0.2-0.5,0.6-1,1-1.5c0.5-0.4,1-0.8,1.7-1c0.7-0.3,1.4-0.4,2.2-0.4  c0.1,0,0.3,0,0.5,0c0.6,0,1.2,0.1,1.7,0.2C276.5,248.1,277,248.3,277.3,248.5z"></path>	<path d="M279.8,257.1c0.1-0.1,0.3-0.1,0.6-0.2c0.3,0,0.5-0.1,0.7-0.2c0-0.1,0-0.2,0-0.2c0-0.1,0-0.3,0-0.7l0-1.7l0-0.9l0-0.7l0-0.4  c0-0.5,0-1,0-1.5c0-1,0-1.7,0-2l-0.4-0.1c-0.4,0-0.7,0-0.8-0.1l0-0.4l0-0.1c0.2,0,0.5-0.1,0.7-0.1c0.1,0,0.3,0,0.7,0  c0.4,0,0.6,0,0.6,0l0.4,0l0.9,0c0.6-0.1,1.2-0.1,1.8-0.1c1,0,1.8,0.3,2.4,0.8c0.6,0.5,0.9,1.1,0.9,1.8c0,0.5-0.2,1-0.5,1.4  c-0.3,0.4-0.8,0.7-1.5,0.9c0.1,0.1,0.1,0.2,0.2,0.4c0.2,0.3,0.4,0.6,0.5,0.8l1.2,1.9c0.3,0.5,0.5,0.8,0.6,0.9  c0.1,0.1,0.3,0.2,0.6,0.3c0.2,0.1,0.4,0.2,0.5,0.3c0,0.1,0,0.2,0,0.2c0,0,0,0.1,0,0.2h-0.2l-0.1,0l-0.4-0.1H289c-0.2,0-0.4,0-0.6,0  l-0.7,0c-0.1,0-0.2,0-0.5,0.1c-0.1,0-0.2,0-0.3,0l-0.3-0.5c-0.2-0.4-0.4-0.7-0.4-0.8c-0.2-0.5-0.6-1.3-1.1-2.3  c-0.2-0.5-0.4-0.8-0.5-0.8c-0.1-0.1-0.4-0.2-0.8-0.2c-0.1,0-0.3,0-0.5,0c0,0.1,0,0.3,0,0.5l0,1.7l0,1.4c0.1,0.1,0.3,0.1,0.5,0.2  c0.4,0.1,0.7,0.2,1,0.3c0,0.2,0,0.4,0,0.6c-0.1,0-0.2,0-0.2,0l-0.3,0c-1.1-0.1-1.7-0.1-1.9-0.1c-0.1,0-0.2,0-0.3,0l-1,0.1  c-0.3,0-0.6,0.1-0.9,0.1h-0.3c0-0.1,0-0.2,0-0.2C279.8,257.2,279.8,257.2,279.8,257.1z M283.2,252.2c0.2,0,0.4,0,0.5,0  c0.8,0,1.4-0.2,1.8-0.5c0.4-0.3,0.5-0.7,0.5-1.2c0-0.3,0-0.6-0.1-0.9c-0.1-0.3-0.2-0.5-0.3-0.6c-0.2-0.2-0.4-0.3-0.7-0.4  c-0.2-0.1-0.6-0.1-1-0.1c-0.2,0-0.4,0-0.6,0l0,0.1l0,1l0,0.6l0,0.8c0,0.2,0,0.5,0,0.9V252.2z"></path>	<path d="M290,257.5l0-0.5c0.1,0,0.3-0.1,0.5-0.1c0.4-0.1,0.6-0.1,0.7-0.2c0.1-0.1,0.2-0.2,0.3-0.4l1.5-3.9l1.8-4.6  c0.2,0,0.3,0,0.5,0h0.3l0.1,0.1l1.3,3.1c0.3,0.7,0.6,1.3,0.8,1.9c0.2,0.6,0.4,1.1,0.6,1.5c0.1,0.2,0.2,0.6,0.4,1.1  c0.1,0.3,0.2,0.6,0.4,1c0.1,0.2,0.2,0.3,0.2,0.4c0.1,0.1,0.2,0.1,0.4,0.1c0.2,0,0.4,0.1,0.7,0.2c0,0.2,0,0.3,0,0.4c0,0,0,0.1,0,0.2  c-0.4,0-0.8,0-1.2-0.1c-0.4,0-0.8-0.1-1.2-0.1c-0.4,0-0.7,0-0.9,0l-1.3,0.1l-0.4,0c0-0.2,0-0.3,0-0.5l0.8-0.2  c0.2-0.1,0.4-0.1,0.4-0.1c0,0,0.1-0.1,0.1-0.2c0-0.1,0-0.1,0-0.2l-0.3-0.7l-0.6-1.5l-2.8,0c-0.1,0.2-0.3,0.8-0.7,1.8  c-0.1,0.3-0.1,0.4-0.1,0.5c0,0.1,0,0.2,0.1,0.3c0.1,0.1,0.3,0.2,0.7,0.2c0,0,0.2,0,0.5,0.1c0,0.2,0,0.3,0,0.4c0,0.1,0,0.1,0,0.2  c-0.3,0-1,0-2.2-0.1l-0.3,0.1c-0.4,0.1-0.7,0.1-1.1,0.1H290z M293.5,253.3c1.2,0,1.8,0,2.1,0l0.2,0c-0.1-0.4-0.3-1-0.6-1.5  c-0.2-0.6-0.4-1-0.6-1.3L293.5,253.3z M294.4,247.2c0.2-0.5,0.4-1.3,0.8-2.4l2,0l-2.2,2.4c-0.2,0-0.3,0-0.3,0  C294.6,247.2,294.5,247.2,294.4,247.2z"></path>	<path d="M301.1,257.6l0-0.5c0.1,0,0.3-0.1,0.5-0.1c0.3,0,0.5-0.1,0.8-0.2l0.1-0.1c0-0.2,0.1-0.4,0.1-0.6v0l0-1.7l0-0.7l0-1.1l0-1.3  l-0.1-2.5c-0.1-0.1-0.3-0.1-0.7-0.2c-0.1,0-0.2-0.1-0.4-0.1l-0.2,0v-0.5l1,0c0.6,0.1,1.5,0.1,2.6,0.1c0.6,0,1.2,0,1.8,0l0.1,0  l0.4,0l0.1,0h0.3l1.3,0c0.1,0,0.1,0,0.2,0c0.1,0,0.2,0,0.3,0c0,0.1,0,0.3,0.1,0.4l0.1,1.4c0,0.1,0,0.3,0,0.3c-0.2,0-0.3,0-0.4,0  c-0.1,0-0.2,0-0.2-0.1c0,0-0.1-0.1-0.2-0.3c-0.2-0.5-0.4-0.8-0.5-0.9c-0.1-0.1-0.6-0.1-1.2-0.1l-1,0c-0.4,0-0.8,0-1,0.1  c-0.1,0-0.1,0-0.2,0.1c-0.1,0.1-0.1,0.3-0.1,0.4l0,0.9l0,1c0,0.5,0,0.8,0.1,1c0,0,0.1,0,0.1,0.1l0.5,0h0.9c0.2,0,0.5,0,0.9-0.1  c0.3,0,0.5-0.1,0.5-0.1c0.1-0.1,0.2-0.2,0.3-0.3c0.1-0.1,0.1-0.4,0.1-0.9c0,0,0.1,0,0.2,0c0.1,0,0.1,0,0.1,0c0.1,0,0.2,0,0.3,0  l0,1.2c0,0.3,0,0.5,0,0.7l0,0.2c0,0,0,0.4,0,1.1c0,0,0,0.1,0,0.2c-0.1,0-0.2,0-0.2,0c0,0-0.1,0-0.3,0c0-0.1-0.1-0.2-0.1-0.4  c-0.1-0.4-0.2-0.6-0.4-0.7c-0.2-0.1-1-0.2-2.2-0.2c-0.2,0-0.4,0-0.6,0.1c0,0.2-0.1,0.5-0.1,0.7l0,2.2c0,0.4,0,0.7,0.1,0.8  c0.1,0.1,0.2,0.1,0.6,0.2l0.1,0c0.2,0,0.4,0,0.6,0.1l0.2,0c0,0.1,0,0.2,0,0.3c0,0.1,0,0.2,0,0.3l-0.1,0l-0.2,0l-1.1-0.1  c-0.1,0-0.7,0-1.7,0c-0.3,0-0.5,0-0.8,0c-0.4,0-0.6,0.1-0.6,0.1C301.4,257.6,301.2,257.6,301.1,257.6z"></path>	<path d="M311,257.5V257c0.1,0,0.3-0.1,0.5-0.1c0.3-0.1,0.6-0.2,0.7-0.2c0.1-0.2,0.1-0.4,0.1-0.6l0-0.9l0-1.7l0-0.4  c0-1,0.1-1.5,0.1-1.5l0-1l0-0.4l0-0.8l0-0.3c0,0,0-0.1-0.1-0.2c-0.2-0.1-0.5-0.2-1-0.2c-0.1,0-0.2,0-0.3,0l0-0.7l2.1,0.1  c0.3,0,0.4,0,0.5,0c0.3,0,0.8,0,1.4-0.1c0.4,0,0.6,0,0.7,0c0,0.1,0,0.2,0,0.2c0,0.1,0,0.2,0,0.3c-0.2,0.1-0.4,0.1-0.7,0.2  c-0.3,0.1-0.5,0.1-0.6,0.2c0,0.1,0,0.3,0,0.6c0,0.2,0,0.4,0,0.5c0,0.8,0,1.5,0,1.9l0,2l0,1l0,1.5l0,0.3c0,0,0,0.1,0,0.2  c0.3,0.1,0.6,0.1,0.8,0.1c0,0,0.2,0,0.5,0.1c0,0.1,0,0.3,0,0.4c0,0.1,0,0.1,0,0.3c-0.1,0-0.1,0-0.1,0c-0.2,0-0.3,0-0.3,0  c0,0-0.1,0-0.2,0c-0.1,0-0.4,0-1-0.1l-1.3,0c-0.3,0-0.6,0-1.1,0.1C311.3,257.5,311.1,257.5,311,257.5z"></path>	<path d="M326,248c0.1,0.1,0.2,0.6,0.4,1.3c0.1,0.3,0.1,0.7,0.1,1h-0.7c-0.5-0.7-1-1.2-1.5-1.5c-0.5-0.3-1.1-0.4-1.7-0.4  c-0.8,0-1.4,0.3-1.9,0.9c-0.6,0.8-1,2-1,3.4c0,0.8,0.1,1.4,0.2,1.8c0.2,0.6,0.4,1.1,0.7,1.4c0.2,0.3,0.5,0.5,0.8,0.7  c0.4,0.2,0.9,0.3,1.4,0.3c0.5,0,1.1-0.2,1.6-0.5c0.5-0.3,1-0.8,1.5-1.5c0.2,0,0.4-0.1,0.7-0.1c0,0.2-0.1,0.4-0.1,0.6  c0,0.1-0.1,0.4-0.2,0.9l-0.1,0.2l-0.1,0.3c-0.3,0.2-0.7,0.4-1.3,0.5c-0.5,0.1-1.2,0.2-2,0.2c-0.6,0-1.2-0.1-1.7-0.2  c-0.5-0.1-1-0.3-1.4-0.5c-0.6-0.4-1-0.7-1.3-1.2c-0.3-0.4-0.6-0.9-0.7-1.4c-0.2-0.5-0.2-1-0.2-1.7c0-1.5,0.5-2.7,1.5-3.7  c1-1,2.2-1.4,3.7-1.4c0.6,0,1.2,0,1.7,0.1C325,247.8,325.5,247.9,326,248z"></path>	<path d="M327.4,257.5l0-0.5c0.1,0,0.3-0.1,0.5-0.1c0.4-0.1,0.6-0.1,0.7-0.2c0.1-0.1,0.2-0.2,0.3-0.4l1.5-3.9l1.8-4.6  c0.2,0,0.3,0,0.5,0h0.3l0.1,0.1l1.3,3.1c0.3,0.7,0.6,1.3,0.8,1.9c0.2,0.6,0.4,1.1,0.6,1.5c0.1,0.2,0.2,0.6,0.4,1.1  c0.1,0.3,0.2,0.6,0.4,1c0.1,0.2,0.2,0.3,0.2,0.4c0.1,0.1,0.2,0.1,0.4,0.1c0.2,0,0.4,0.1,0.7,0.2c0,0.2,0,0.3,0,0.4c0,0,0,0.1,0,0.2  c-0.4,0-0.8,0-1.2-0.1c-0.4,0-0.8-0.1-1.2-0.1c-0.4,0-0.7,0-0.9,0l-1.3,0.1l-0.4,0c0-0.2,0-0.3,0-0.5l0.8-0.2  c0.2-0.1,0.4-0.1,0.4-0.1c0,0,0.1-0.1,0.1-0.2c0-0.1,0-0.1,0-0.2l-0.3-0.7l-0.6-1.5l-2.8,0c-0.1,0.2-0.3,0.8-0.7,1.8  c-0.1,0.3-0.1,0.4-0.1,0.5c0,0.1,0,0.2,0.1,0.3c0.1,0.1,0.3,0.2,0.7,0.2c0,0,0.2,0,0.5,0.1c0,0.2,0,0.3,0,0.4c0,0.1,0,0.1,0,0.2  c-0.3,0-1,0-2.2-0.1l-0.3,0.1c-0.4,0.1-0.7,0.1-1.1,0.1H327.4z M330.9,253.3c1.2,0,1.8,0,2.1,0l0.2,0c-0.1-0.4-0.3-1-0.6-1.5  c-0.2-0.6-0.4-1-0.6-1.3L330.9,253.3z"></path></g></svg>